<?xml version="1.0" standalone="no"?>
<!DOCTYPE svg PUBLIC "-//W3C//DTD SVG 20010904//EN"
 "http://www.w3.org/TR/2001/REC-SVG-20010904/DTD/svg10.dtd">
<svg version="1.0" xmlns="http://www.w3.org/2000/svg"
 width="1024.000000pt" height="1024.000000pt" viewBox="0 0 1024.000000 1024.000000"
 preserveAspectRatio="xMidYMid meet">
<metadata>
Created by potrace 1.14, written by Peter Selinger 2001-2017
</metadata>
<g transform="translate(0.000000,1024.000000) scale(0.100000,-0.100000)"
fill="#000000" stroke="none">
<path d="M364 10120 c0 -69 1 -97 3 -62 2 34 2 90 0 125 -2 34 -3 6 -3 -63z"/>
<path d="M672 10220 c0 -14 2 -19 5 -12 2 6 2 18 0 25 -3 6 -5 1 -5 -13z"/>
<path d="M4024 10105 c0 -77 2 -107 3 -67 2 40 2 103 0 140 -2 37 -3 4 -3 -73z"/>
<path d="M5770 9679 l0 -560 -82 1 c-46 1 -181 1 -300 1 -243 -1 -222 5 -230
-71 l-3 -25 -140 -6 c-77 -3 -165 -11 -195 -17 -30 -7 -72 -14 -92 -17 -37 -6
-38 -7 -38 -45 l0 -40 -65 -1 c-88 -3 -89 -3 -97 -14 -4 -5 -8 -27 -8 -49 l0
-38 -90 4 -90 4 0 -52 c0 -38 -4 -53 -16 -58 -9 -3 -65 -6 -125 -6 l-109 0 0
-50 0 -49 -82 -3 -83 -3 -3 -37 c-3 -35 -6 -38 -35 -38 -18 -1 -60 -2 -95 -4
-49 -2 -65 1 -72 13 -7 12 -9 13 -10 2 0 -8 -7 -19 -15 -25 -8 -6 -15 -28 -17
-48 l-2 -38 -72 0 c-78 0 -84 -4 -84 -61 0 -25 -4 -29 -27 -29 -60 0 -73 -10
-73 -50 0 -40 -13 -50 -72 -50 -21 0 -28 -5 -28 -19 0 -36 -12 -50 -46 -57
-32 -6 -34 -9 -34 -45 0 -39 0 -39 -39 -39 -39 0 -40 -1 -43 -37 -3 -36 -5
-38 -43 -43 -38 -5 -40 -7 -43 -43 -3 -38 -4 -39 -37 -33 -34 7 -34 6 -40 -39
-7 -46 -6 -45 -65 -49 -11 -1 -16 -18 -20 -66 l-5 -65 -35 -3 c-47 -5 -50 -8
-50 -48 0 -33 -1 -34 -39 -34 -40 0 -40 0 -43 -42 -2 -25 -8 -44 -15 -44 -7
-1 -24 -2 -37 -3 -22 -1 -24 -4 -19 -36 l6 -35 -42 0 c-40 0 -41 -1 -41 -32 0
-39 -8 -52 -35 -56 -37 -5 -43 -11 -38 -30 8 -33 -14 -62 -47 -62 -28 0 -30
-2 -30 -39 0 -39 -1 -40 -37 -43 -37 -3 -38 -4 -38 -40 1 -35 -1 -37 -37 -43
-35 -6 -38 -9 -38 -41 0 -32 -2 -34 -35 -34 -31 0 -35 -3 -35 -27 0 -39 -10
-51 -45 -55 -25 -2 -30 -8 -33 -34 -3 -26 -8 -33 -33 -38 -23 -4 -31 -12 -35
-36 -5 -23 -12 -30 -31 -30 -24 0 -35 -15 -37 -53 -1 -17 -8 -23 -31 -25 -35
-4 -45 -16 -45 -54 0 -24 -4 -27 -37 -30 -36 -3 -38 -5 -43 -41 -3 -21 -8 -38
-12 -37 -65 3 -68 1 -68 -35 0 -36 -3 -38 -65 -47 -15 -2 -21 -12 -23 -40 -3
-35 -5 -37 -40 -40 -36 -3 -37 -4 -40 -45 -3 -42 -3 -42 -45 -45 -39 -3 -42
-5 -45 -35 -3 -29 -7 -32 -40 -35 -35 -3 -37 -5 -40 -40 -3 -35 -5 -37 -40
-40 -34 -3 -37 -6 -42 -38 -5 -32 -8 -35 -40 -38 -39 -4 -50 -15 -50 -54 0
-26 -3 -28 -44 -28 -46 0 -56 -9 -56 -56 0 -20 -5 -24 -29 -24 -49 0 -61 -9
-61 -45 0 -33 -2 -34 -42 -37 -39 -3 -43 -6 -49 -35 -4 -22 -3 -34 5 -34 6 -1
-7 -5 -29 -8 -37 -5 -40 -9 -45 -41 -4 -31 -9 -36 -40 -40 -31 -4 -36 -9 -40
-40 -4 -31 -9 -36 -40 -40 -34 -5 -35 -7 -40 -55 l-5 -50 -40 0 -40 0 0 -115
c0 -93 -3 -116 -15 -122 -12 -5 -12 -7 2 -7 15 -1 16 -18 12 -191 l-4 -190 43
0 c38 0 43 -3 44 -22 2 -106 2 -108 24 -108 27 0 61 -19 54 -30 -3 -4 -1 -20
5 -34 8 -22 16 -26 48 -26 37 0 39 -1 34 -27 -5 -25 -6 -25 -13 -8 -5 13 -8
15 -8 5 -1 -31 44 -60 92 -60 45 0 46 -1 53 -35 6 -35 6 -35 60 -35 l54 0 0
-39 c0 -49 6 -51 130 -51 105 0 110 -3 110 -56 l0 -24 220 0 220 0 0 40 0 40
149 0 150 0 8 43 9 42 57 3 c35 2 71 11 90 22 26 16 28 20 12 21 -28 2 53 27
88 28 15 1 30 8 33 16 4 8 10 12 15 9 5 -3 9 3 10 13 0 16 1 16 9 -2 5 -11 9
-15 9 -9 1 7 13 15 27 18 15 4 33 14 41 22 9 8 23 12 34 9 17 -6 19 -1 19 36
l0 42 64 -5 c50 -4 63 -3 59 7 -7 20 45 51 60 36 6 -6 15 -11 21 -11 6 0 5 5
-2 12 -16 16 -15 55 0 65 7 4 25 6 40 4 25 -2 27 0 30 46 3 45 5 48 28 45 15
-1 37 8 55 22 17 13 23 24 15 23 -8 -1 -15 2 -15 8 0 5 14 11 30 12 69 7 71 9
50 43 -6 11 -3 10 11 -2 16 -14 23 -15 32 -6 14 14 16 -1 6 -50 -5 -26 -12
-31 -38 -34 -27 -3 -32 -7 -36 -38 -4 -29 -10 -36 -33 -40 -31 -6 -67 -53 -67
-88 0 -24 -8 -29 -50 -35 -24 -4 -25 -8 -30 -83 l-5 -78 -37 -9 c-35 -8 -38
-12 -38 -43 0 -32 -2 -34 -32 -34 -17 0 -40 -7 -50 -17 -11 -9 -18 -11 -18 -5
0 7 -4 12 -10 12 -13 0 -8 -22 8 -35 10 -8 4 -17 -28 -38 -23 -15 -46 -27 -51
-27 -5 0 -9 -12 -9 -27 0 -34 -14 -58 -28 -49 -18 11 -38 -4 -51 -38 -11 -26
-22 -35 -56 -44 -37 -10 -42 -15 -41 -38 1 -25 -4 -29 -63 -45 -55 -16 -102
-37 -61 -27 9 1 16 -1 17 -6 1 -5 7 -12 14 -17 8 -5 -1 -10 -24 -14 -22 -5
-37 -13 -37 -22 0 -8 -5 -11 -12 -7 -8 5 -9 2 -5 -9 5 -12 1 -17 -13 -17 -13
0 -18 -5 -14 -15 4 -10 0 -15 -12 -15 -25 -1 -63 -31 -47 -37 13 -5 -19 -43
-36 -43 -11 0 -21 -25 -21 -51 0 -14 -7 -19 -29 -19 -29 0 -41 -14 -41 -50 0
-13 -9 -20 -27 -22 -20 -2 -29 -11 -38 -38 -7 -19 -18 -36 -26 -36 -8 -1 -22
-2 -31 -3 -10 -1 -19 -13 -23 -31 -6 -26 -11 -30 -40 -30 -33 0 -34 -2 -37
-42 -3 -42 -4 -43 -40 -46 -35 -3 -37 -5 -40 -40 -3 -36 -4 -37 -45 -40 -44
-3 -46 -5 -55 -67 -3 -16 -12 -21 -46 -23 -39 -3 -42 -5 -42 -33 0 -24 -6 -32
-29 -40 -23 -8 -31 -18 -33 -41 -2 -26 -9 -33 -38 -43 -29 -10 -36 -17 -38
-42 -3 -26 -8 -32 -37 -37 -29 -6 -34 -11 -37 -39 -3 -28 -8 -33 -39 -41 -33
-8 -36 -12 -35 -40 1 -28 -2 -31 -34 -36 -33 -5 -35 -7 -38 -47 -3 -43 -3 -43
-42 -43 l-39 0 -3 -93 c-2 -64 -7 -92 -15 -93 -7 -1 -24 -2 -38 -3 l-25 -1 0
-179 c0 -99 -4 -182 -9 -185 -4 -3 -142 -6 -305 -6 -254 -1 -296 -3 -296 -16
0 -11 5 -12 18 -6 9 5 37 6 62 3 25 -4 63 -4 85 0 22 4 129 7 238 8 198 1 198
1 192 -20 -13 -41 -13 -69 1 -69 11 0 14 -25 14 -120 l0 -120 40 0 40 0 0 -70
0 -70 40 0 c36 0 40 -3 40 -24 0 -41 11 -56 39 -56 23 0 29 -6 37 -37 8 -33
13 -38 42 -41 31 -3 33 -6 28 -28 -9 -34 4 -101 15 -82 6 9 9 10 9 1 0 -7 7
-13 16 -13 8 0 12 -4 9 -10 -3 -5 -2 -17 3 -26 8 -14 10 -14 25 0 8 9 28 16
44 15 15 0 22 -3 15 -6 -10 -4 -10 -7 2 -17 8 -6 19 -27 23 -46 l9 -35 115 -5
c63 -3 113 -8 112 -12 -2 -5 -3 -24 -3 -43 0 -34 1 -35 40 -35 l40 0 0 -80 0
-80 40 0 40 0 0 -85 0 -85 44 0 c46 0 56 -9 56 -56 0 -20 5 -24 30 -24 53 0
65 -63 13 -68 -29 -3 -32 -7 -35 -40 -3 -36 -4 -37 -45 -40 l-43 -3 0 -74 0
-74 38 -3 c36 -3 37 -4 40 -45 3 -42 4 -43 38 -43 32 0 34 -2 34 -35 0 -32 2
-35 30 -35 31 0 50 -22 50 -59 0 -16 6 -21 25 -21 24 0 30 -10 27 -50 -1 -22
16 -29 65 -25 l43 2 0 -47 0 -47 79 -7 80 -7 3 -37 c3 -37 4 -37 51 -40 46 -3
47 -4 47 -38 l0 -34 115 0 115 0 0 -30 0 -30 1314 0 c1312 0 1314 0 1309 20
-3 11 -15 22 -27 25 -35 8 -208 11 -274 5 l-62 -6 0 42 0 42 80 7 c43 4 152 4
242 -1 165 -8 187 -8 246 -5 25 1 32 5 32 21 0 11 7 20 16 20 8 0 13 -4 9 -9
-3 -5 8 -3 25 5 16 9 30 22 30 30 0 18 19 18 26 0 4 -10 27 -14 92 -14 48 -1
95 -1 105 -1 10 -1 17 -9 17 -20 0 -29 12 -33 95 -25 61 6 75 10 74 23 -5 50
-3 51 74 51 39 0 109 3 155 7 l83 6 -3 36 -3 36 85 5 85 5 3 37 c3 36 5 38 36
38 27 0 35 6 49 33 14 28 16 29 16 10 1 -13 6 -23 12 -23 5 0 7 5 4 10 -3 6 1
10 9 10 9 0 16 4 16 10 0 5 7 7 15 4 9 -4 15 -1 15 7 0 20 47 39 99 41 44 1
45 2 8 5 -41 5 -41 23 0 23 16 0 27 7 30 19 4 15 15 21 47 23 38 3 41 5 44 34
3 31 4 32 68 39 61 6 64 8 64 34 0 23 4 27 33 29 51 4 64 11 63 35 -1 19 5 23
49 27 42 4 50 8 53 27 2 13 7 23 12 23 5 0 7 -7 3 -16 -4 -12 -2 -15 8 -12 8
3 13 11 11 17 -1 6 5 11 14 11 8 0 13 4 9 9 -3 5 0 13 6 17 8 4 9 3 5 -4 -4
-7 -1 -12 9 -12 9 0 13 5 10 10 -5 9 72 16 113 11 7 -1 12 2 11 6 -1 4 -1 25
0 46 1 36 2 37 41 37 29 0 40 4 40 15 0 11 11 15 38 16 40 0 93 17 60 18 -23
1 -23 27 -1 36 10 3 47 9 83 12 66 5 115 26 105 43 -4 6 0 10 8 10 8 0 17 7
21 15 4 12 24 15 90 15 l85 0 3 28 c3 24 8 27 45 30 34 3 42 7 45 25 2 13 13
24 28 28 24 7 24 7 -5 9 -16 2 6 8 50 14 80 11 80 11 83 43 3 29 7 32 40 35
l37 3 3 53 3 52 120 0 c77 0 119 4 119 11 0 5 4 8 9 5 5 -4 7 2 5 11 -8 32 11
43 79 50 37 3 67 10 67 15 0 5 5 6 10 3 6 -3 13 1 16 9 3 9 10 14 14 11 4 -3
10 6 14 18 5 22 26 37 69 51 11 3 21 15 24 26 4 16 14 20 47 20 26 0 36 3 28
9 -11 7 -11 9 2 14 9 4 13 14 11 27 -3 18 1 20 46 20 56 0 81 16 74 49 -3 18
1 21 33 21 20 0 66 3 102 6 l66 6 -4 33 c-4 30 -1 33 30 40 59 11 75 23 70 55
-4 27 -2 28 45 34 26 3 76 7 110 8 l62 3 6 37 c6 33 10 37 38 40 18 2 30 8 27
13 -2 6 -10 9 -16 7 -8 -1 -10 5 -7 18 3 11 10 20 15 20 5 0 6 -5 3 -10 -11
-18 27 -24 40 -7 7 10 20 17 29 17 9 0 16 7 16 15 0 9 10 15 26 15 l26 0 -4
190 c-2 145 0 191 10 195 7 2 12 22 12 45 l0 40 51 0 c27 0 48 4 45 8 -3 5 9
6 26 4 34 -5 48 9 48 50 0 24 4 27 38 30 35 3 37 5 36 35 -2 30 0 31 42 35 24
2 46 -1 48 -7 3 -5 5 -2 5 7 1 9 -5 19 -11 21 -10 4 -10 6 0 6 9 1 12 451 10
2219 0 1219 -3 2202 -5 2185 -4 -29 -8 -33 -33 -33 -50 0 -60 -9 -60 -52 0
-38 -1 -39 -32 -36 -21 2 -32 8 -30 17 7 32 -9 51 -44 51 -27 0 -37 5 -46 25
-6 14 -14 22 -17 17 -3 -5 -16 -13 -29 -17 -17 -5 -23 -3 -21 7 6 49 -13 90
-33 70 -22 -22 -48 -15 -48 16 0 33 -15 59 -24 43 -4 -6 -19 -11 -33 -11 -15
0 -23 3 -20 7 4 3 2 12 -4 20 -7 8 -8 13 -1 13 21 0 -1 40 -22 40 -24 1 -88
28 -68 29 10 1 10 4 -2 16 -20 20 -46 19 -47 -2 -1 -10 -4 -4 -8 12 -5 26 -11
30 -44 33 -20 2 -38 9 -38 15 -1 7 -2 17 -4 22 -1 6 -3 16 -3 23 -2 8 -24 12
-76 12 l-74 0 1 38 c2 37 2 37 -43 42 -42 5 -45 7 -45 35 0 27 -3 30 -37 33
-36 3 -38 5 -39 40 -1 20 -1 41 0 46 1 6 0 20 -4 33 -4 17 -12 23 -34 23 -25
0 -30 5 -35 34 -4 19 -12 36 -20 39 -16 6 -40 -8 -34 -19 13 -21 -10 -49 -43
-54 -30 -4 -34 -9 -37 -37 -4 -37 -5 -37 -102 -33 -58 2 -63 1 -51 -13 7 -9
10 -20 8 -25 -17 -26 48 -44 218 -61 58 -6 60 -7 57 -32 -3 -29 16 -39 71 -39
23 0 27 -4 27 -29 0 -28 3 -30 45 -37 29 -4 45 -11 45 -21 0 -8 4 -12 9 -8 5
3 22 -6 37 -20 22 -21 37 -25 85 -25 58 0 58 0 49 -24 -7 -20 -6 -26 9 -31 12
-3 21 -19 25 -40 6 -32 9 -34 61 -40 40 -5 52 -11 48 -21 -3 -8 0 -14 6 -14 6
0 11 -9 11 -20 0 -10 7 -23 16 -28 11 -6 15 -17 11 -31 -4 -18 -1 -21 29 -21
33 0 34 -1 34 -39 0 -39 1 -40 38 -43 35 -3 37 -5 42 -43 5 -39 6 -40 45 -43
l40 -3 -3 -39 -4 -40 40 0 c36 0 40 -3 46 -31 3 -17 6 -41 6 -53 0 -19 4 -21
35 -18 l35 4 0 -109 c0 -112 7 -133 41 -133 9 0 20 -7 23 -16 9 -22 7 -94 -1
-93 -5 1 -25 1 -45 0 -36 -1 -37 -2 -40 -43 -3 -39 -6 -43 -30 -46 l-28 -3 0
-140 c0 -102 -3 -141 -12 -144 -7 -3 -14 -21 -16 -41 -3 -47 -6 -50 -42 -57
l-30 -6 0 -80 c0 -44 -4 -82 -9 -85 -5 -4 -21 -7 -36 -8 l-26 -2 3 -78 3 -77
-35 -10 -35 -9 30 -2 30 -1 -39 -18 c-30 -13 -36 -19 -24 -24 9 -3 18 -16 20
-28 3 -21 55 -61 70 -53 4 3 9 -5 13 -16 4 -11 10 -18 15 -15 4 3 10 -15 12
-40 3 -45 3 -45 -29 -45 -19 0 -33 -5 -34 -12 0 -7 0 -43 1 -80 1 -65 0 -68
-22 -69 -56 -3 -53 3 -53 -104 l0 -100 -37 -3 -38 -3 0 -115 c0 -86 -3 -114
-12 -113 -7 1 -24 1 -37 0 -23 -1 -24 -3 -19 -63 7 -73 3 -88 -21 -88 -22 0
-69 -52 -52 -58 9 -3 9 -7 0 -18 -8 -10 -8 -14 0 -14 6 0 11 -15 11 -34 0 -32
-3 -35 -32 -38 l-32 -3 3 -62 2 -62 -43 -3 c-42 -3 -43 -4 -45 -38 -1 -19 -2
-43 -2 -53 -1 -14 -7 -16 -41 -11 l-40 7 0 -86 0 -86 -37 -3 -36 -3 -1 -50 -1
-50 -37 3 -38 4 0 -40 c0 -46 -12 -53 -85 -44 -29 3 -56 0 -71 -8 -33 -18 -54
3 -57 53 -2 41 -12 48 -20 16 -4 -15 -11 -20 -21 -16 -9 4 -16 1 -17 -6 0 -7
-6 12 -12 42 -11 50 -15 56 -44 63 -24 6 -33 15 -38 37 -5 24 -14 31 -43 38
-32 7 -37 13 -40 40 -3 29 -6 31 -35 30 -31 -2 -32 0 -37 40 -4 33 -8 40 -19
34 -31 -20 -49 -1 -56 60 l-7 59 -36 2 c-50 2 -58 1 -86 -6 -22 -5 -24 -2 -31
41 -7 45 -23 73 -44 73 -6 0 -11 6 -11 14 0 8 -6 17 -12 19 -7 3 2 6 21 6 40
1 38 8 -4 14 -25 3 -30 8 -33 36 -3 28 -7 32 -30 31 -52 -4 -55 -2 -48 30 3
19 2 29 -4 25 -6 -3 -10 -2 -10 2 0 5 -12 10 -27 11 -32 2 -43 17 -37 47 3 20
-1 24 -40 29 -41 6 -43 8 -42 39 1 30 -1 32 -34 32 -19 0 -38 5 -43 10 -4 6
-7 118 -6 250 1 213 -1 240 -15 243 -12 3 -16 15 -16 44 0 39 -1 40 -27 35
-16 -3 -40 -3 -55 0 -24 5 -28 10 -28 39 0 32 -2 34 -32 34 -63 0 -78 9 -78
46 l0 34 -61 0 -62 0 6 35 6 35 -60 0 -59 0 0 40 0 39 -87 3 -88 3 -3 38 c-3
41 -12 48 -64 50 -27 2 -33 6 -35 27 -2 14 0 19 4 10 8 -20 23 -29 39 -23 10
4 11 10 3 25 -8 14 -8 23 0 31 6 6 11 21 11 33 0 30 14 38 80 44 l55 5 0 35
c0 34 2 35 43 38 23 2 42 7 42 13 0 5 -6 9 -14 9 -8 0 -18 5 -22 12 -5 7 -2 9
8 6 10 -4 18 4 27 28 11 30 17 34 46 34 33 0 34 1 23 25 -10 21 -8 28 8 40 10
8 31 15 45 15 25 0 26 4 40 93 15 92 15 92 44 92 25 1 29 5 30 30 4 110 2 105
40 105 35 0 35 0 35 44 0 49 9 59 51 58 16 0 31 4 34 9 4 5 -5 9 -19 9 -30 0
-31 19 -1 35 12 6 21 23 23 42 3 27 7 31 42 37 29 5 37 10 34 23 -2 10 -5 62
-7 116 -5 102 -17 147 -17 61 0 -34 -3 -44 -9 -34 -6 8 -7 18 -4 23 3 5 2 33
-2 62 -6 50 -8 53 -32 52 -15 -1 -29 5 -34 16 -5 9 -13 25 -17 34 -13 25 -32
28 -32 4 0 -18 -6 -21 -39 -21 -31 0 -40 -4 -46 -22 -7 -19 -9 -15 -14 22 -6
43 -7 41 -16 -40 l-10 -85 -32 -3 c-32 -3 -33 -4 -33 -53 0 -66 -13 -89 -50
-89 -29 0 -29 -1 -32 -62 l-3 -62 -35 -1 c-33 0 -35 -2 -38 -35 -5 -48 -18
-60 -63 -60 -37 0 -38 0 -41 -42 -3 -42 -4 -43 -40 -46 -36 -3 -38 -5 -38 -37
0 -53 -9 -65 -45 -65 -30 0 -33 -3 -39 -35 -8 -38 -17 -43 -101 -47 l-50 -3
-3 -38 -3 -39 -94 4 c-51 1 -89 0 -83 -3 6 -4 6 -9 -2 -14 -10 -6 -9 -11 3
-20 11 -7 13 -16 6 -26 -7 -11 -9 -11 -9 4 0 11 -8 17 -24 17 -28 0 -51 24
-43 44 8 20 -22 43 -65 51 -29 6 -38 4 -38 -6 0 -11 -2 -11 -10 1 -11 17 -13
10 -10 -37 2 -42 -7 -42 -19 0 -7 24 -9 26 -10 10 -1 -30 -7 -32 -86 -22 -47
6 -71 5 -76 -2 -4 -7 -8 -5 -12 5 -5 11 -20 16 -52 16 -45 0 -45 0 -45 35 l0
35 -54 0 -55 0 -3 37 -3 37 -62 -3 -63 -2 0 35 0 36 -59 0 -60 0 -3 38 -3 37
-57 3 -58 3 0 36 0 36 -55 -6 -55 -6 0 40 0 39 -65 0 -65 0 0 35 c0 35 0 35
-45 35 l-45 0 0 45 0 46 -107 -3 -108 -3 -5 -40 c-5 -38 -7 -40 -40 -40 -32 0
-35 -3 -40 -35 -5 -33 -7 -35 -47 -38 -41 -3 -43 -4 -43 -37 0 -37 -23 -52
-60 -40 -16 5 -20 2 -21 -19 -1 -14 -2 -32 -3 -38 -1 -9 -27 -14 -83 -16 l-83
-3 0 -33 c0 -33 -1 -34 -55 -41 -51 -6 -55 -8 -55 -33 0 -41 -14 -55 -49 -50
-32 5 -41 -5 -41 -48 0 -22 -4 -24 -44 -24 -43 0 -45 -1 -48 -32 -3 -32 -4
-33 -55 -36 -53 -3 -60 -10 -54 -54 0 -3 -22 -12 -49 -19 -28 -7 -50 -19 -50
-26 0 -7 -9 -18 -20 -25 -13 -9 -20 -24 -20 -45 0 -32 -2 -33 -39 -33 -38 0
-39 -2 -46 -38 -6 -37 -9 -39 -53 -48 -28 -6 -46 -14 -45 -22 2 -6 -2 -12 -8
-12 -6 0 -8 8 -4 19 5 15 2 18 -13 15 -15 -5 -18 1 -20 35 -2 23 1 41 5 41 14
0 31 48 22 62 -12 19 -11 71 1 63 6 -3 10 1 10 9 0 8 7 19 15 24 13 7 16 33
16 150 1 126 3 142 17 142 11 0 13 3 6 8 -9 5 -8 10 1 19 17 16 39 -29 22 -46
-8 -8 -7 -11 6 -11 12 0 17 8 17 30 0 17 -5 30 -12 30 -9 0 -8 3 2 10 11 7 15
42 17 172 1 90 4 177 6 193 3 17 5 39 7 50 l1 20 9 -20 c7 -15 9 -10 9 23 1
23 6 42 11 42 6 0 10 8 10 17 0 15 -2 14 -18 -3 -11 -11 -22 -26 -25 -34 -4
-8 -4 0 -1 18 3 20 1 32 -5 32 -6 0 -11 16 -11 35 0 32 -2 35 -30 35 -28 0
-30 -3 -30 -34 0 -19 -4 -37 -9 -40 -4 -3 -6 -28 -3 -56 4 -47 3 -50 -19 -50
-36 0 -46 11 -53 56 -6 36 -12 43 -36 48 -21 4 -31 13 -36 31 -3 14 -11 25
-18 26 -6 0 -2 4 9 8 19 8 19 8 -3 20 -15 8 -22 21 -22 40 0 23 -5 30 -25 33
-28 6 -35 1 -35 -23 0 -12 -5 -16 -15 -13 -8 4 -15 1 -15 -5 0 -6 6 -10 13 -8
6 1 12 -5 12 -13 0 -8 -8 -16 -17 -18 -15 -3 -18 5 -19 45 -3 114 0 108 -41
111 -21 2 -38 -1 -38 -6 0 -6 -11 -13 -25 -16 -14 -4 -25 -12 -26 -19 0 -6 -4
-3 -9 8 -6 14 -9 2 -9 -42 -1 -59 0 -62 25 -65 31 -3 38 -31 38 -132 0 -45 -4
-60 -18 -68 -15 -8 -16 -12 -5 -19 10 -6 8 -9 -8 -9 -16 0 -23 7 -26 28 -4 27
-11 -152 -7 -195 1 -19 -5 -24 -39 -29 -41 -6 -41 -7 -41 -50 0 -42 0 -43 -37
-46 l-38 -3 -3 -52 c-2 -38 -7 -53 -18 -53 -7 0 -14 -7 -14 -16 0 -8 -5 -12
-11 -8 -14 8 -29 -14 -29 -43 0 -19 -7 -24 -39 -29 -37 -6 -40 -9 -43 -43 -3
-34 -5 -36 -41 -39 -29 -2 -38 -7 -36 -20 4 -45 -1 -52 -36 -52 -35 0 -35 0
-35 -45 l0 -45 -50 0 c-43 0 -50 -3 -50 -20 0 -11 -4 -20 -10 -20 -5 0 -7 -7
-4 -15 5 -11 -1 -15 -22 -15 -37 -1 -59 -18 -68 -53 -3 -15 -11 -25 -16 -22
-5 3 -11 1 -15 -5 -4 -6 -11 -8 -16 -5 -5 4 -14 -5 -20 -19 -12 -25 -58 -44
-68 -28 -3 5 -17 13 -30 17 -16 5 -20 10 -11 15 8 5 4 9 -13 14 -17 4 -26 15
-31 36 l-6 31 -60 -5 c-58 -5 -61 -4 -55 15 4 12 4 36 0 55 -6 32 -8 34 -45
34 -35 0 -40 3 -40 23 0 28 -17 47 -43 47 -11 0 -25 7 -32 17 -16 21 -35 9
-35 -23 0 -14 4 -22 10 -19 6 3 10 -4 10 -15 0 -13 8 -24 19 -27 14 -3 21 -15
23 -37 2 -25 8 -32 30 -34 23 -3 27 -8 30 -40 3 -31 7 -37 36 -44 35 -9 40
-19 18 -37 -8 -7 -15 -41 -18 -89 -3 -42 -9 -84 -12 -94 -5 -11 -1 -18 13 -23
34 -11 24 -21 -19 -19 -39 2 -40 1 -40 -32 0 -28 -4 -34 -21 -34 -15 0 -19 -5
-15 -15 4 -11 -1 -15 -19 -15 -17 0 -25 -6 -27 -22 -2 -19 -10 -24 -40 -26
-37 -3 -53 -21 -46 -53 2 -10 -9 -15 -34 -17 -38 -3 -43 -10 -40 -54 1 -14 -6
-18 -37 -18 -37 0 -40 -2 -48 -37 l-9 -38 -76 -3 -77 -3 -3 -42 c-3 -42 -3
-42 -48 -47 -37 -4 -45 -9 -46 -27 -2 -44 -11 -52 -66 -55 l-53 -3 -3 -37 c-2
-21 -7 -38 -12 -38 -5 0 -7 7 -4 15 5 11 2 13 -10 9 -9 -3 -13 -10 -10 -15 3
-5 -7 -9 -23 -9 -22 0 -25 2 -13 10 12 8 12 10 -5 11 -11 0 -15 3 -8 6 10 3
10 9 0 24 -10 16 -23 19 -79 19 -87 0 -98 -5 -98 -45 0 -29 -4 -34 -31 -40
-17 -4 -33 -13 -36 -21 -3 -8 -9 -11 -14 -8 -5 3 -9 1 -9 -5 0 -5 6 -12 13
-14 9 -4 9 -6 0 -6 -7 -1 -13 -7 -13 -15 0 -12 -152 -20 -593 -31 -10 0 -22
-7 -28 -15 -9 -13 -10 -12 -5 3 5 15 -1 17 -43 17 -67 0 -81 7 -81 41 0 26 -4
29 -30 29 -30 0 -30 1 -30 55 0 41 -4 57 -17 64 -16 9 -16 12 -3 22 11 8 12
12 3 16 -7 2 -13 9 -13 14 0 6 4 8 9 5 8 -5 23 119 22 177 -1 15 2 27 7 27 5
0 8 10 8 23 -1 15 4 22 16 21 10 -1 18 2 18 6 0 5 16 14 35 20 27 9 35 17 35
35 0 26 33 55 62 55 24 0 24 38 0 56 -16 13 -16 14 3 12 11 -1 39 2 62 6 37 7
42 12 45 39 2 24 10 33 33 40 35 12 45 23 40 48 -3 12 8 22 36 33 31 13 39 21
39 41 0 14 6 25 13 25 7 0 25 6 40 13 21 9 27 19 27 44 0 22 4 31 13 28 6 -3
30 2 52 10 22 8 36 14 30 15 -5 0 -3 5 5 10 10 6 11 10 3 10 -7 0 -13 7 -13
15 0 10 16 16 52 21 29 4 47 9 41 11 -7 3 -13 18 -13 35 0 25 3 29 20 25 11
-3 20 -2 20 3 0 4 16 11 36 15 32 6 34 8 19 19 -25 18 -8 29 62 42 38 7 40 11
16 31 -17 14 -17 14 -1 9 20 -6 25 10 6 17 -7 3 -3 6 10 6 12 1 22 7 22 15 0
9 12 16 32 18 29 3 33 7 36 36 2 18 7 30 12 27 5 -3 11 -1 15 5 3 5 15 10 26
10 12 0 19 7 19 19 0 10 9 21 19 24 11 2 21 15 23 28 2 19 10 25 36 27 25 3
35 10 43 29 5 13 7 29 4 33 -6 9 28 32 42 29 11 -3 46 13 58 25 6 6 19 39 29
72 16 53 21 61 40 58 11 -2 15 -1 8 2 -10 5 -7 10 10 18 15 7 24 22 26 41 4
35 16 45 54 45 31 0 44 15 29 34 -14 17 -3 49 15 42 7 -3 15 0 17 7 3 9 9 8
22 -3 11 -9 16 -10 11 -2 -4 7 -1 12 8 12 9 0 16 4 16 10 0 5 12 13 26 16 18
5 22 10 15 17 -17 17 -13 27 12 28 21 0 21 1 2 9 -19 7 -18 9 8 19 16 6 33 11
39 11 6 0 6 6 -2 15 -10 12 -9 15 6 15 16 0 17 2 4 10 -12 7 -8 11 18 16 24 5
32 12 32 28 0 32 21 54 53 58 15 2 26 7 25 12 -2 5 11 15 27 22 18 8 23 13 13
14 -27 0 -21 27 7 34 14 4 25 14 25 23 0 16 36 53 52 53 4 0 8 7 8 15 0 18 37
58 63 68 11 4 17 17 17 36 0 26 4 30 33 33 29 3 32 6 35 39 3 33 6 36 45 45
39 8 42 11 47 49 5 37 8 40 39 43 31 3 33 5 27 33 -3 16 -2 29 3 29 5 0 11 9
14 20 3 12 14 20 26 20 13 0 21 6 21 16 0 11 -6 15 -20 11 -11 -3 -20 -1 -20
4 0 5 11 9 24 9 34 0 59 27 52 56 -6 22 -3 24 32 24 42 0 75 22 86 56 4 12 20
27 35 34 19 8 31 21 34 40 5 22 13 29 41 34 28 5 36 12 41 36 4 17 11 30 16
30 6 0 8 4 4 9 -6 11 10 16 70 27 57 9 75 21 75 48 0 29 16 43 55 48 27 3 30
7 33 45 l3 42 112 3 112 3 3 43 3 42 78 0 c85 0 90 4 91 68 0 22 2 22 135 22
l135 0 2 35 c1 19 2 43 2 53 1 24 21 30 99 31 l67 1 0 45 0 45 80 0 80 0 0 49
0 49 103 7 c57 4 162 6 235 4 l132 -4 0 53 0 52 413 0 c226 0 520 2 652 5 155
4 233 2 220 -4 -19 -9 -18 -10 5 -10 18 -1 21 -4 11 -10 -26 -17 9 -22 214
-33 187 -11 205 -13 205 -30 0 -16 10 -18 105 -18 84 0 105 -3 105 -14 0 -8
-8 -17 -17 -19 -15 -4 -16 -5 -2 -6 9 0 20 -12 23 -26 6 -22 11 -25 55 -25 46
0 49 -2 54 -29 6 -27 12 -31 64 -42 32 -6 53 -14 46 -16 -10 -3 -10 -9 0 -24
6 -10 16 -19 20 -19 5 0 15 -7 23 -15 13 -13 46 -19 92 -18 7 1 12 -12 12 -33
0 -36 7 -39 68 -34 21 1 27 -15 21 -56 -1 -12 25 -24 53 -24 15 0 29 -4 32 -8
3 -5 24 -6 48 -3 41 6 43 8 46 42 2 29 -1 37 -17 42 -12 3 -23 18 -29 38 -7
29 -14 35 -48 41 -21 4 -56 7 -76 7 -37 1 -38 2 -38 36 0 19 -4 35 -9 35 -5 0
-17 8 -27 17 -13 13 -19 14 -22 5 -5 -16 -22 -5 -22 14 0 28 -28 44 -89 50
-59 7 -59 7 -58 38 2 29 0 31 -38 34 -58 4 -85 11 -85 23 0 6 5 7 10 4 6 -3
10 -1 10 4 0 6 11 11 25 11 14 0 25 4 25 9 0 5 9 11 20 14 15 4 20 14 20 36 0
25 4 31 21 31 13 0 23 8 26 20 5 19 59 57 75 52 3 -1 9 12 13 27 6 27 28 47
48 42 4 -1 13 12 18 29 6 16 17 30 25 30 8 0 14 5 14 10 0 6 7 10 16 10 10 0
14 6 10 15 -3 9 0 15 10 15 11 0 14 6 10 16 -3 8 -2 13 3 9 14 -8 71 28 72 45
1 8 5 4 9 -10 7 -23 8 -22 9 11 1 33 5 38 42 52 27 11 40 21 36 30 -8 22 7 36
44 40 30 4 34 8 37 35 4 36 23 55 57 55 21 0 25 4 25 28 0 16 6 29 13 30 6 1
19 2 27 3 8 2 23 3 32 4 12 1 18 13 20 40 3 37 3 37 46 35 40 -2 42 0 42 26 0
37 14 41 167 48 104 5 122 8 126 23 5 21 78 29 216 24 73 -2 97 -7 103 -19 5
-8 22 -15 40 -15 78 0 157 -22 189 -52 30 -30 34 -30 164 -37 l134 -7 32 -33
c34 -36 60 -44 184 -56 57 -5 74 -11 90 -31 12 -13 29 -24 38 -24 10 0 20 -6
23 -14 3 -7 17 -13 32 -14 35 0 72 -12 72 -23 0 -5 15 -16 33 -25 23 -12 28
-19 17 -22 -8 -3 5 -11 30 -17 26 -6 45 -17 46 -25 3 -42 5 -50 12 -49 4 1 28
1 55 0 39 -1 47 -4 47 -19 0 -18 37 -42 63 -42 7 0 18 -20 25 -45 7 -25 15
-44 19 -44 40 6 83 -17 95 -52 5 -12 21 -18 52 -21 l46 -3 0 398 c-1 380 -2
399 -19 404 -11 3 -21 16 -24 29 -5 28 0 34 25 34 16 0 18 10 18 120 l0 120
-105 -1 c-81 0 -105 -4 -105 -14 0 -8 5 -17 10 -20 6 -3 10 -17 10 -31 0 -19
-5 -24 -25 -24 -18 0 -23 -4 -19 -15 5 -11 2 -13 -10 -9 -9 3 -13 10 -10 15 3
5 -5 9 -18 8 -13 0 -17 -3 -11 -6 10 -3 9 -8 -2 -20 -8 -8 -13 -18 -10 -23 3
-4 -4 -10 -16 -13 -11 -3 -19 -11 -17 -19 1 -7 -2 -15 -7 -17 -28 -10 -65 -45
-65 -61 0 -20 -19 -30 -60 -30 -22 0 -29 -5 -32 -25 -3 -14 -1 -25 4 -25 5 0
8 -6 6 -12 -3 -7 -21 -14 -41 -16 l-37 -2 0 49 0 48 39 7 c36 5 39 9 45 45 6
37 8 40 44 43 35 3 37 5 40 40 3 33 6 37 35 40 27 3 33 7 35 33 2 17 8 36 14
43 8 9 -25 12 -161 12 l-172 0 4 -40 c2 -22 0 -40 -6 -40 -12 0 -57 -48 -57
-61 0 -5 -6 -9 -12 -8 -20 3 -49 -12 -42 -22 3 -5 0 -9 -6 -9 -6 0 -15 -10
-21 -23 -6 -13 -26 -29 -45 -36 -21 -8 -40 -23 -47 -39 -6 -15 -16 -30 -22
-34 -6 -5 -5 -8 3 -8 7 0 10 -5 7 -10 -4 -6 -11 -8 -16 -5 -5 4 -9 1 -9 -4 0
-6 -4 -11 -10 -11 -5 0 -10 23 -10 50 0 51 0 52 48 50 4 -1 9 16 12 37 4 31
10 38 37 45 25 6 32 14 35 36 2 21 11 30 37 38 30 10 31 12 12 17 -11 3 -21
12 -21 21 0 19 20 22 20 4 1 -17 30 22 30 39 0 10 -35 13 -164 13 l-163 0 -6
-55 c-7 -71 -13 -78 -52 -72 -30 5 -33 3 -38 -23 -5 -20 -13 -29 -34 -33 -15
-3 -29 -4 -30 -3 -1 1 -5 21 -9 44 l-7 42 47 0 c41 0 62 13 36 22 -7 2 -5 16
5 40 l15 38 -435 0 -435 0 0 -39 c0 -37 -2 -40 -32 -43 -30 -3 -33 -6 -36 -40
-3 -35 -5 -37 -40 -40 -35 -3 -37 -5 -40 -40 -3 -35 -5 -37 -40 -40 -35 -3
-37 -5 -42 -43 -5 -38 -7 -40 -42 -43 -36 -3 -37 -3 -44 -58 -3 -30 -10 -54
-14 -54 -5 0 -11 -18 -15 -39 -6 -37 -9 -40 -43 -43 -32 -3 -40 -8 -55 -40
-13 -29 -23 -38 -41 -38 -13 0 -27 6 -29 13 -3 6 -6 -2 -6 -20 -2 -57 -17 -83
-50 -83 -26 0 -30 -4 -33 -32 -3 -30 -6 -33 -40 -36 -32 -3 -38 -7 -38 -27 0
-44 -10 -55 -51 -55 -38 0 -39 -1 -39 -35 0 -36 -20 -55 -59 -55 -14 0 -22 -8
-27 -27 -11 -51 -13 -53 -53 -53 -39 0 -40 -1 -43 -37 -2 -29 -8 -38 -23 -40
-56 -6 -60 -9 -65 -38 -4 -22 -13 -32 -35 -40 -16 -5 -34 -15 -38 -22 -6 -9
-41 -13 -122 -13 l-114 0 -3 43 -3 42 -100 6 c-55 3 -197 2 -315 -2 -250 -10
-646 -11 -676 -3 -20 5 -20 10 -17 222 2 118 6 218 8 221 3 2 6 -9 7 -25 1
-16 5 81 8 216 l6 245 2 -284 c1 -156 5 -282 8 -279 3 3 5 112 4 242 l0 236
34 0 34 0 4 80 c2 44 0 81 -3 83 -4 1 -2 13 4 27 l11 25 4 -32 c5 -53 32 -43
32 12 0 33 -4 45 -15 45 -9 0 -15 10 -16 23 -1 17 -2 18 -6 4 -7 -26 -33 -2
-33 29 0 22 -4 24 -55 24 l-55 0 0 -561z m3038 517 c-2 -25 -9 -32 -33 -37
-19 -4 -23 -7 -10 -8 16 -1 14 -5 -12 -17 -17 -9 -33 -24 -36 -35 -3 -12 -14
-19 -30 -19 -19 0 -26 -7 -33 -32 -8 -27 -15 -34 -41 -36 -28 -3 -30 -1 -25
23 3 19 12 28 33 32 24 4 28 11 31 42 3 32 6 36 34 39 28 3 32 7 38 42 6 39 7
40 47 38 38 -1 40 -3 37 -32z m-3008 -8 c-1 -28 -2 -30 -11 -15 -6 10 -8 25
-5 33 9 24 16 16 16 -18z m17 -5 c-3 -10 -5 -4 -5 12 0 17 2 24 5 18 2 -7 2
-21 0 -30z m20 -10 c-3 -10 -5 -2 -5 17 0 19 2 27 5 18 2 -10 2 -26 0 -35z
m3400 15 c-3 -7 -5 -2 -5 12 0 14 2 19 5 13 2 -7 2 -19 0 -25z m-3420 -90 c-3
-7 -5 -2 -5 12 0 14 2 19 5 13 2 -7 2 -19 0 -25z m3175 -18 c-2 -30 1 -40 13
-40 8 0 15 -4 15 -10 0 -5 -5 -10 -10 -10 -6 0 -10 -7 -8 -16 2 -10 -3 -19 -9
-21 -8 -3 -13 4 -13 16 0 11 -8 25 -17 31 -13 8 -14 13 -5 16 6 3 15 23 18 45
8 50 19 42 16 -11z m1181 -97 c-7 -2 -19 -2 -25 0 -7 3 -2 5 12 5 14 0 19 -2
13 -5z m7 -54 c0 -4 3 -14 6 -23 4 -11 1 -16 -10 -16 -9 0 -16 -4 -16 -10 0
-20 -21 -9 -30 15 -5 14 -15 25 -22 26 -7 0 -4 4 7 9 23 10 65 9 65 -1z
m-4385 -327 c-15 -15 -16 21 -9 165 l9 158 3 -159 c1 -87 0 -161 -3 -164z
m4272 296 c-3 -8 -6 -5 -6 6 -1 11 2 17 5 13 3 -3 4 -12 1 -19z m-401 -40 c-3
-13 -5 -31 -5 -40 -1 -14 -6 -16 -23 -9 -12 4 -22 14 -24 22 -1 8 -5 22 -9 32
-6 14 -1 17 29 17 32 0 35 -3 32 -22z m440 -13 c9 -24 -18 -42 -75 -50 -43 -6
-53 -5 -49 6 3 9 16 13 37 11 27 -3 32 0 31 15 -4 30 -1 33 25 33 14 0 28 -7
31 -15z m54 1 c0 -11 -19 -15 -25 -6 -3 5 1 10 9 10 9 0 16 -2 16 -4z m-64
-77 c3 -5 -4 -9 -15 -9 -12 0 -21 -6 -22 -12 0 -9 -2 -9 -5 -2 -3 8 -20 10
-44 7 -32 -5 -40 -2 -40 10 0 13 12 16 60 15 33 0 63 -5 66 -9z m-136 -9 c0
-5 -1 -10 -2 -10 -63 -10 -78 -10 -78 -1 0 8 17 13 68 20 6 0 12 -3 12 -9z
m-12 -47 c-10 -2 -26 -2 -35 0 -10 3 -2 5 17 5 19 0 27 -2 18 -5z m-2618 -653
c0 -5 -4 -10 -10 -10 -5 0 -10 5 -10 10 0 6 5 10 10 10 6 0 10 -4 10 -10z
m2715 -1930 c-3 -5 -10 -10 -16 -10 -5 0 -9 5 -9 10 0 6 7 10 16 10 8 0 12 -4
9 -10z m-12 -27 c-7 -2 -19 -2 -25 0 -7 3 -2 5 12 5 14 0 19 -2 13 -5z m-2095
-88 c0 -16 -2 -15 -8 5 -11 34 -11 60 0 35 5 -11 8 -29 8 -40z m-2502 -285
l29 -1 -27 -17 c-16 -9 -28 -20 -28 -24 0 -5 -5 -8 -11 -8 -6 0 -9 7 -6 15 4
8 2 17 -3 20 -6 4 -10 16 -10 28 1 20 2 21 14 5 7 -10 26 -18 42 -18z m-66
-40 c0 -24 -4 -30 -20 -30 -12 0 -20 -6 -19 -12 4 -34 -2 -58 -16 -58 -12 0
-15 14 -15 65 l0 65 35 0 c32 0 35 -2 35 -30z m-88 -80 c-4 -27 -8 -30 -38
-30 -31 0 -34 3 -34 30 0 28 2 30 38 30 37 0 38 -1 34 -30z m-1667 -130 c3 -5
1 -10 -4 -10 -6 0 -11 5 -11 10 0 6 2 10 4 10 3 0 8 -4 11 -10z m1450 0 c28
-4 44 -8 38 -9 -7 0 -13 -7 -13 -15 0 -15 30 -26 73 -26 20 0 30 -6 34 -20 4
-16 14 -20 43 -20 35 0 39 -3 46 -32 4 -18 9 -27 11 -21 4 10 10 9 26 -2 12
-8 35 -15 52 -15 21 0 26 -3 16 -9 -11 -7 -9 -10 8 -16 11 -3 21 -13 21 -20 0
-10 17 -17 50 -21 40 -5 49 -10 45 -23 -6 -22 5 -36 35 -39 14 -1 39 -9 55
-16 17 -7 37 -16 45 -19 10 -3 7 -6 -8 -6 -21 -1 -22 -3 -8 -16 8 -8 21 -15
30 -15 8 0 17 -4 20 -9 3 -5 14 -7 24 -5 9 3 26 -2 37 -10 15 -12 16 -15 5
-16 -34 -1 15 -20 52 -20 32 0 39 -4 44 -25 5 -19 13 -25 34 -25 35 0 51 -20
18 -21 -20 -1 -21 -2 -3 -6 11 -3 24 -9 30 -14 5 -5 15 -9 22 -9 20 0 61 -40
42 -41 -23 -2 34 -17 67 -18 18 -1 34 -7 38 -16 3 -8 12 -15 21 -15 8 0 15 -6
15 -14 0 -14 29 -26 68 -26 13 0 21 -4 18 -9 -3 -5 2 -12 11 -15 14 -6 14 -8
-3 -21 -15 -11 -16 -15 -4 -16 85 -6 120 -18 120 -40 0 -11 8 -22 18 -25 48
-16 48 -16 27 -25 -13 -5 -5 -6 22 -2 38 5 43 3 54 -20 8 -18 22 -26 50 -31
25 -4 39 -12 39 -21 0 -15 42 -39 79 -44 5 0 8 -9 7 -18 -1 -13 7 -18 28 -18
16 -1 31 -6 34 -13 2 -7 15 -12 28 -12 33 0 64 -17 64 -35 0 -11 12 -15 45
-15 43 0 45 -1 45 -30 0 -28 3 -30 36 -30 31 0 35 -3 32 -22 -3 -20 1 -23 27
-20 17 2 39 -4 50 -11 16 -13 17 -17 6 -31 -12 -14 -9 -16 23 -16 22 0 35 -4
31 -10 -4 -6 5 -10 19 -10 16 0 26 -6 26 -14 0 -15 21 -26 50 -26 14 0 17 -5
13 -21 -5 -19 -3 -21 21 -17 16 3 33 0 40 -8 7 -7 33 -14 58 -16 l44 -3 -8
-32 c-6 -23 -15 -33 -27 -33 -14 0 -18 -5 -14 -20 3 -11 0 -20 -6 -20 -6 0
-11 -7 -11 -15 0 -9 -10 -15 -26 -15 -19 0 -25 -4 -20 -15 15 -40 -67 -68
-170 -58 -51 6 -54 7 -54 34 0 28 -1 29 -55 29 l-55 0 0 33 0 34 -56 -5 -57
-5 5 32 5 31 -55 0 -54 0 4 30 5 30 -60 0 -59 0 7 30 7 30 -59 0 -60 0 5 30 4
30 -52 0 -52 0 6 30 6 30 -54 0 -53 0 5 30 4 30 -56 0 -57 0 7 34 6 35 -57 -6
-58 -6 7 36 7 37 -56 0 c-54 0 -55 0 -55 30 0 30 -1 30 -55 30 l-56 0 7 35 6
35 -61 0 -60 0 6 30 6 30 -52 0 c-50 0 -51 1 -45 25 6 24 5 25 -50 25 -54 0
-56 1 -46 20 16 30 4 40 -51 40 -48 0 -50 1 -47 28 3 26 2 27 -54 30 -55 3
-57 4 -55 30 2 25 -1 27 -48 32 -45 5 -50 7 -50 30 0 23 -3 25 -48 24 -48 0
-49 0 -43 28 5 28 5 28 -49 28 l-54 0 6 35 6 35 -58 0 c-55 0 -57 1 -53 24 4
20 0 25 -25 30 -16 3 -45 6 -63 6 -27 0 -34 4 -34 19 0 15 -10 20 -50 25 -47
6 -50 8 -50 36 0 26 4 30 28 31 15 1 36 0 46 -1 16 -1 18 3 13 34 -7 41 11 52
71 41 l38 -6 -4 40 c-4 39 -3 41 24 40 16 0 52 -4 79 -9z m2562 -212 c-3 -8
-6 -5 -6 6 -1 11 2 17 5 13 3 -3 4 -12 1 -19z m-2902 -29 c-4 -6 -10 -8 -13
-5 -3 3 -11 1 -19 -5 -7 -6 -14 -8 -14 -3 -1 5 -5 -9 -9 -31 l-7 -40 -2 48 -1
47 36 0 c22 0 33 -4 29 -11z m1842 -15 c-3 -3 -12 -4 -19 -1 -8 3 -5 6 6 6 11
1 17 -2 13 -5z m-1932 -174 c-2 -11 -7 -25 -10 -30 -3 -6 0 -11 7 -11 7 -1 18
-2 23 -4 6 -1 25 -3 42 -3 18 -1 32 -5 32 -9 -5 -31 3 -43 29 -43 15 0 33 -4
41 -9 17 -11 6 -31 -17 -32 -31 -2 32 -17 74 -18 43 -1 62 -19 41 -40 -8 -8
-5 -11 13 -11 51 0 130 -24 130 -40 0 -13 -1 -13 -10 0 -5 8 -10 11 -10 5 0
-26 23 -39 81 -47 63 -8 84 -17 62 -25 -20 -7 -15 -23 7 -23 11 0 20 -4 20 -9
0 -5 17 -12 39 -16 26 -4 42 -14 51 -31 13 -24 26 -29 64 -25 14 1 17 -4 14
-23 -5 -27 7 -36 50 -36 36 0 54 -13 50 -36 -2 -16 5 -20 46 -25 34 -4 54 -12
67 -28 12 -15 34 -25 61 -28 l41 -6 -22 -19 c-21 -16 -21 -18 -5 -20 21 -1 25
-2 77 -12 30 -7 37 -13 37 -32 0 -19 5 -24 25 -24 34 0 74 -20 69 -35 -3 -8 8
-14 33 -18 21 -4 45 -15 53 -27 8 -11 21 -20 30 -20 12 -1 12 -3 -3 -14 -17
-13 -16 -14 5 -19 13 -3 44 -9 70 -12 34 -5 48 -12 51 -26 4 -14 14 -19 41
-19 32 0 36 -3 36 -25 0 -16 6 -25 16 -25 27 0 94 -23 94 -32 0 -4 -15 -8 -32
-9 -29 -1 -28 -2 12 -10 80 -15 90 -19 90 -35 0 -9 6 -14 13 -11 8 3 20 1 28
-4 11 -7 10 -9 -4 -9 -32 0 -8 -18 33 -25 22 -4 42 -11 46 -16 3 -5 14 -9 25
-9 10 0 19 -4 19 -10 0 -5 13 -10 30 -10 27 0 29 -2 20 -25 -8 -20 -6 -25 7
-25 9 0 43 -7 74 -16 45 -13 59 -21 61 -38 2 -17 9 -20 35 -18 41 4 47 -8 37
-76 -4 -31 -9 -49 -12 -39 -8 36 -45 15 -72 -40 -27 -56 -59 -70 -79 -35 -9
15 -10 15 -11 -5 0 -21 -5 -23 -60 -23 l-61 0 7 35 6 35 -55 0 -56 0 9 30 c5
17 6 31 2 31 -4 1 -27 2 -52 3 -43 1 -45 2 -42 30 l3 29 -55 -5 c-56 -5 -56
-5 -56 24 0 31 -12 35 -67 19 l-31 -9 5 34 6 34 -50 0 c-47 0 -49 1 -48 28 0
26 -2 27 -54 30 -53 3 -53 3 -47 33 l6 29 -60 0 -60 0 0 31 c0 31 0 31 -49 27
-49 -3 -49 -3 -44 25 5 27 5 27 -51 27 -54 0 -56 1 -46 21 16 28 8 33 -56 33
-55 0 -55 0 -49 28 6 27 5 28 -37 30 -24 0 -51 1 -60 0 -14 -1 -16 4 -11 28
l6 30 -51 0 -51 0 6 30 6 30 -58 0 -57 0 7 31 7 31 -51 -3 c-50 -4 -51 -3 -51
24 0 26 -2 27 -53 27 l-52 0 0 32 c0 22 -5 33 -15 34 -8 0 -32 2 -53 2 -37 2
-38 3 -32 32 l7 30 -61 0 c-61 0 -61 0 -61 29 0 35 -17 43 -71 35 l-39 -7 0
37 0 36 -56 0 -55 0 3 33 3 32 -56 3 c-55 3 -55 3 -51 31 4 28 3 28 -72 40
-42 6 -92 11 -111 11 -32 0 -35 2 -35 30 0 29 1 30 51 30 l51 0 -6 45 -7 45
45 -6 46 -7 0 42 0 41 109 0 c105 0 110 -1 106 -20z m-470 -50 c3 -5 -1 -10
-10 -10 -9 0 -13 5 -10 10 3 6 8 10 10 10 2 0 7 -4 10 -10z m-75 -160 c0 -5
-5 -10 -11 -10 -5 0 -7 5 -4 10 3 6 8 10 11 10 2 0 4 -4 4 -10z m-67 -206 c25
-9 9 -51 -22 -56 -39 -6 -51 0 -51 27 0 28 38 43 73 29z m5894 -26 c-3 -7 -5
-2 -5 12 0 14 2 19 5 13 2 -7 2 -19 0 -25z m-5931 -50 c10 -10 13 -48 3 -48
-5 0 -9 9 -9 20 0 11 -4 20 -10 20 -5 0 -10 -7 -10 -15 0 -8 -9 -24 -21 -36
-15 -15 -24 -18 -34 -9 -11 9 -15 1 -20 -43 l-7 -55 -61 -7 c-65 -7 -77 -15
-77 -54 0 -21 -4 -23 -35 -19 -37 4 -45 -4 -45 -48 0 -29 -35 -34 -57 -6 -7 9
-13 13 -12 7 3 -18 -13 -45 -26 -45 -7 0 -16 -12 -21 -27 -5 -21 -8 -24 -11
-10 -5 21 -23 23 -23 2 0 -8 -9 -15 -19 -15 -32 0 -51 -11 -50 -29 0 -10 2
-11 6 -3 7 18 23 14 23 -6 0 -15 -8 -19 -37 -20 -20 -1 -41 -6 -47 -12 -5 -5
-14 -10 -20 -10 -5 0 -7 3 -3 6 3 3 1 18 -4 32 -12 31 1 42 49 42 27 0 32 4
32 24 0 32 24 50 58 43 26 -5 28 -4 24 22 -3 25 0 29 29 35 19 3 37 1 46 -5
11 -10 13 -5 7 29 l-7 42 44 0 c43 0 44 1 44 33 0 30 2 32 38 35 33 3 37 6 37
31 0 32 18 41 83 41 38 0 48 15 25 38 -10 10 -10 15 2 23 15 10 105 7 116 -3z
m-126 -39 c0 -6 -4 -7 -10 -4 -5 3 -10 11 -10 16 0 6 5 7 10 4 6 -3 10 -11 10
-16z m3560 -53 c0 -54 -1 -55 -27 -52 -21 2 -28 9 -28 26 0 13 -6 25 -12 27
-9 3 -13 -6 -13 -25 0 -29 -2 -30 -50 -34 -46 -3 -50 -1 -50 19 0 17 7 22 33
25 30 3 32 5 29 36 l-4 32 61 0 61 0 0 -54z m-3052 -186 l-5 -90 38 0 39 0 0
-46 0 -46 -42 4 -43 3 4 -45 c3 -55 5 -57 27 -35 11 11 26 15 44 11 26 -5 27
-3 26 32 -1 37 -1 37 42 40 42 3 42 3 42 42 l0 40 -42 -6 -43 -6 -2 51 c-1 58
8 65 88 59 43 -3 44 -4 47 -40 3 -36 5 -38 38 -38 l34 0 0 -55 0 -55 -35 0
c-30 0 -35 -3 -35 -24 0 -29 -7 -35 -49 -38 -28 -2 -31 -5 -31 -35 0 -19 -5
-34 -12 -35 -7 0 -24 -2 -38 -4 -82 -10 -90 -15 -90 -50 0 -18 -5 -36 -10 -39
-6 -4 -44 -4 -85 0 l-73 7 5 33 5 33 -81 7 -81 7 0 33 c0 31 -3 34 -32 37 -26
2 -34 8 -36 27 -6 38 7 71 26 71 27 0 42 20 42 57 0 31 2 33 35 33 32 0 35 2
35 30 0 28 3 30 35 30 35 0 35 0 35 45 l0 45 91 0 92 0 -5 -90z m-1006 -338
c7 -18 68 -52 93 -52 15 0 24 -4 20 -10 -3 -6 1 -7 9 -4 11 4 16 0 16 -11 0
-11 5 -15 14 -12 8 3 17 -1 20 -9 4 -9 21 -14 51 -14 43 0 45 -1 45 -29 0 -27
3 -29 53 -36 28 -5 55 -7 60 -7 4 1 7 -11 7 -28 0 -28 3 -30 50 -36 44 -6 50
-9 50 -30 0 -13 6 -24 13 -25 6 0 3 -4 -8 -8 -14 -6 -1 -10 47 -15 56 -6 66
-10 63 -25 -6 -30 11 -43 55 -45 37 -1 42 -4 47 -29 5 -25 9 -27 42 -25 31 3
36 0 39 -19 3 -19 10 -23 40 -23 51 0 68 -12 48 -33 -24 -24 -20 -27 39 -27
52 0 55 -1 55 -26 0 -14 3 -23 8 -21 4 3 18 0 32 -6 14 -5 30 -11 35 -12 33
-7 55 -19 55 -31 0 -9 12 -14 35 -14 26 0 33 -4 29 -14 -7 -18 30 -43 88 -61
24 -8 36 -14 28 -15 -22 -1 76 -57 134 -76 34 -12 44 -19 35 -25 -10 -6 -8 -9
9 -9 12 0 22 -4 22 -10 0 -5 13 -10 29 -10 26 0 41 -14 40 -38 0 -9 38 -20 79
-21 27 -1 32 -5 32 -25 0 -23 4 -25 53 -28 44 -3 52 -6 55 -24 2 -16 12 -24
35 -27 92 -17 97 -19 97 -43 0 -20 -5 -24 -30 -24 -28 0 -30 -3 -30 -35 0 -24
-5 -38 -17 -42 -25 -10 -53 -36 -53 -49 0 -7 -13 -15 -30 -19 -22 -5 -30 -12
-30 -28 0 -21 -20 -62 -20 -43 0 5 -9 -1 -20 -14 -11 -13 -20 -19 -21 -14 -1
5 -5 -2 -9 -16 -4 -14 -9 -155 -9 -315 -1 -159 -5 -295 -9 -301 -4 -6 -17 -13
-29 -16 -19 -5 -22 -1 -25 31 -3 31 -7 36 -30 39 -23 3 -28 8 -28 31 0 26 -3
29 -47 34 -26 3 -50 11 -54 20 -5 8 -21 18 -36 22 -21 5 -24 8 -12 16 9 5 10
9 2 9 -7 0 -17 -8 -22 -17 -10 -17 -10 -17 -11 0 0 9 -7 17 -16 17 -9 0 -18 9
-21 20 -3 10 -15 22 -27 25 -68 18 -95 29 -90 37 3 4 9 6 13 3 10 -6 25 51 21
80 -2 17 1 16 22 -7 13 -16 34 -28 46 -28 12 0 22 -4 22 -10 0 -5 13 -10 29
-10 17 0 33 -4 36 -10 3 -5 15 -10 26 -10 11 0 18 -4 15 -9 -4 -5 -4 -16 0
-24 4 -11 20 -14 62 -13 l57 1 3 112 3 112 -36 17 c-19 9 -35 20 -35 24 0 5
-10 10 -22 12 -13 2 -22 9 -20 16 1 8 -2 11 -8 7 -10 -6 -121 50 -215 110 -27
17 -84 50 -125 72 -41 23 -125 70 -186 105 -61 34 -221 125 -355 202 -134 76
-281 160 -326 187 -96 57 -326 190 -395 228 -31 17 -46 31 -43 40 5 11 3 12
-10 1 -13 -11 -16 -11 -13 0 2 7 -3 15 -11 18 -9 3 -11 0 -6 -8 9 -14 -8 -7
-35 15 -8 7 -25 16 -37 19 -22 7 -23 5 -23 -41 0 -26 3 -92 7 -145 l6 -98 34
0 c29 0 34 -4 40 -30 3 -18 12 -31 22 -31 9 -1 30 -3 46 -5 17 -2 38 -4 48 -5
13 0 17 -7 15 -27 -2 -15 2 -27 7 -28 38 -3 84 -18 80 -24 -3 -5 4 -6 15 -3
16 4 19 2 13 -13 -3 -11 -11 -22 -16 -25 -5 -4 22 -10 59 -14 87 -9 106 -19
98 -49 -5 -21 -2 -24 41 -28 48 -6 87 -31 79 -53 -5 -13 36 -25 87 -25 28 0
35 -10 30 -47 -1 -8 10 -13 29 -13 16 0 30 -4 30 -9 0 -5 34 -20 76 -33 67
-20 75 -25 71 -45 -4 -20 1 -23 42 -29 56 -8 71 -18 64 -44 -4 -15 -1 -20 13
-18 11 1 40 -4 67 -12 38 -12 47 -18 47 -37 0 -13 5 -23 11 -23 5 0 7 -5 3
-12 -5 -7 -3 -8 7 -2 21 13 102 17 95 5 -9 -14 12 -51 26 -48 7 1 12 -3 13
-10 0 -6 4 -15 9 -20 5 -5 6 -3 2 5 -4 7 -1 12 9 12 8 0 19 -8 22 -17 6 -15 7
-15 14 3 7 18 8 18 8 -2 1 -24 26 -36 81 -38 20 0 35 -6 36 -13 1 -7 2 -20 3
-28 0 -9 11 -15 24 -15 13 0 31 -6 41 -13 14 -11 16 -19 9 -47 -7 -28 -15 -36
-37 -38 -55 -7 -104 19 -58 31 13 4 11 5 -5 6 -13 0 -23 7 -23 15 0 8 -18 29
-40 46 -22 17 -40 27 -40 22 0 -6 6 -13 13 -15 7 -3 5 -6 -5 -6 -10 -1 -18 6
-18 15 0 14 -3 14 -16 4 -12 -11 -14 -11 -12 -1 2 8 -20 20 -56 32 -32 10 -64
23 -70 28 -6 5 -31 13 -56 19 -25 5 -35 10 -22 11 12 1 22 4 22 7 0 14 -60 64
-77 63 -16 -1 -17 -2 0 -6 18 -5 24 -48 7 -58 -6 -3 -10 5 -10 19 0 21 -5 25
-37 28 -20 2 -38 8 -40 15 -3 7 3 9 16 6 12 -3 21 -1 21 5 0 14 -28 35 -39 28
-17 -11 -39 5 -49 34 -8 20 -19 29 -44 34 -44 8 -53 5 -50 -18 2 -11 -1 -16
-7 -12 -6 4 -11 20 -11 35 0 26 -4 29 -62 43 -35 9 -62 20 -61 27 4 15 -66 43
-101 39 -25 -2 -31 1 -36 22 -4 17 -15 27 -35 31 -17 4 -22 7 -12 8 29 2 14
26 -19 29 -16 2 -33 10 -37 18 -9 16 -37 19 -37 4 0 -5 8 -10 17 -10 9 0 14
-2 11 -5 -3 -3 -18 -2 -35 1 -29 6 -40 30 -20 45 20 15 -8 39 -58 49 -36 7
-55 17 -58 28 -2 9 -3 2 -2 -15 3 -37 -12 -46 -17 -10 -2 16 -11 23 -33 25
-16 2 -40 15 -53 29 -30 32 -23 40 11 12 26 -20 27 -20 27 -1 0 15 -9 21 -41
26 -22 4 -45 4 -51 0 -6 -4 -14 -1 -19 7 -5 8 -22 12 -48 10 -38 -2 -40 -1
-43 31 -3 29 -7 34 -38 38 -19 3 -37 12 -40 20 -10 30 -5 600 5 599 6 -1 29
-1 53 0 41 1 42 2 42 35 0 37 15 46 83 46 35 0 37 1 37 34 0 21 5 34 13 33 65
-2 77 3 77 32 0 16 6 32 13 34 20 9 115 8 119 -1z m1797 -29 c-10 -11 -10 -14
-1 -9 8 5 12 1 13 -11 1 -12 3 -10 8 7 10 35 56 41 65 8 11 -42 7 -48 -28 -48
-36 0 -46 -12 -46 -56 0 -21 -4 -24 -39 -24 -36 0 -40 -3 -43 -27 -2 -23 -8
-29 -35 -31 -30 -3 -33 -6 -33 -35 l0 -33 112 -2 c62 -2 114 -5 116 -6 10 -10
-13 -32 -35 -34 -32 -3 -45 -19 -38 -49 5 -22 2 -23 -51 -23 -55 0 -55 0 -52
27 2 16 -1 28 -7 28 -22 2 -55 17 -55 26 0 5 -11 9 -25 9 -25 0 -25 0 -25 95
l0 95 30 0 c25 0 30 4 30 25 0 23 3 25 49 25 47 0 50 2 56 30 5 21 12 30 27
30 18 0 19 -2 7 -17z m225 -58 c3 -10 19 -15 46 -15 l40 0 0 -101 0 -101 -25
4 c-24 5 -25 3 -25 -38 0 -54 -16 -64 -99 -64 l-61 0 0 54 c0 52 1 54 31 60
17 3 42 6 55 6 21 0 24 5 24 34 0 26 -5 36 -20 41 -20 6 -29 45 -10 45 6 0 10
4 10 9 0 5 -20 8 -45 6 l-45 -4 0 40 0 39 59 0 c43 0 60 -4 65 -15z m526 -333
c0 -26 2 -27 41 -24 37 4 40 6 35 28 -6 23 -4 24 44 24 35 0 50 -4 49 -12 -3
-26 3 -73 8 -60 7 17 60 15 67 -3 3 -8 16 -15 28 -15 46 0 66 -11 61 -31 -3
-10 -10 -19 -17 -20 -6 0 0 -5 14 -11 15 -6 20 -12 13 -15 -7 -3 -13 -11 -13
-19 0 -9 -11 -14 -29 -14 -25 0 -30 -4 -33 -27 -2 -16 -8 -27 -15 -25 -7 1
-13 -5 -13 -13 0 -8 -7 -15 -17 -15 -9 0 -31 -11 -49 -25 -18 -14 -40 -25 -48
-25 -9 0 -16 -4 -16 -8 0 -5 -7 -17 -16 -28 -12 -14 -14 -15 -11 -3 5 14 0 15
-28 9 l-34 -8 -3 42 -3 41 -82 3 -83 3 0 34 0 35 -49 0 c-28 0 -53 -4 -56 -10
-3 -5 -17 -10 -31 -10 -21 0 -24 5 -24 34 0 33 2 35 38 38 34 3 37 6 40 36 3
33 4 33 43 27 l39 -7 0 51 0 51 75 0 75 0 0 -28z m2358 -172 c7 -12 17 -18 22
-15 6 3 10 1 10 -4 0 -6 6 -11 14 -11 8 0 18 -9 21 -21 8 -24 66 -52 110 -52
17 0 23 -2 14 -4 -11 -3 -15 -11 -12 -24 7 -24 20 -25 26 -1 4 14 11 -37 9
-59 -1 -4 7 -6 16 -6 47 0 51 -3 54 -40 3 -36 5 -38 43 -43 37 -5 40 -8 45
-40 5 -33 7 -35 43 -34 37 1 37 1 37 -37 0 -36 2 -39 29 -39 l29 0 7 -82 c3
-46 5 -135 3 -198 l-3 -115 -40 -6 c-22 -3 -30 -7 -17 -8 12 0 22 -6 22 -12 0
-6 -7 -9 -15 -5 -10 3 -17 -3 -21 -19 -4 -15 -13 -25 -24 -25 -10 0 -21 -7
-24 -16 -3 -8 -10 -12 -16 -9 -9 6 -15 -35 -11 -77 1 -10 -4 -18 -13 -18 -9 0
-16 -5 -16 -11 0 -8 -4 -8 -12 -2 -21 15 -42 9 -47 -12 -2 -11 -12 -26 -22
-33 -11 -7 -19 -22 -19 -33 0 -11 -7 -22 -15 -25 -8 -4 -12 -10 -9 -15 3 -5
-15 -9 -40 -9 -34 0 -46 4 -46 15 0 11 -11 15 -37 16 -21 0 -46 2 -55 4 -12 2
-18 -3 -18 -16 0 -12 -9 -21 -25 -25 -14 -3 -25 -13 -25 -23 -1 -38 -17 -46
-112 -51 l-93 -5 -5 -30 -5 -30 -89 -3 c-57 -2 -93 1 -100 8 -8 9 -6 11 8 8
22 -4 30 11 17 31 -8 12 -12 12 -25 2 -9 -7 -25 -11 -36 -8 -11 3 -23 1 -26
-5 -3 -5 -13 0 -21 11 -9 13 -25 21 -42 21 -31 0 -41 14 -41 61 0 26 -3 29
-34 29 -30 0 -35 3 -38 28 -2 22 -9 28 -38 32 -27 4 -36 10 -38 28 -2 13 -11
26 -20 28 -9 3 -25 10 -36 16 -15 8 -158 27 -215 28 -11 0 -11 3 0 16 11 14
10 18 -6 27 -11 7 -27 13 -35 13 -8 1 -48 5 -88 9 -41 4 -85 13 -100 21 -14 7
-29 11 -34 8 -4 -3 -8 -4 -9 -2 -7 30 -12 158 -7 158 5 0 8 7 8 15 0 9 8 19
18 22 24 9 32 23 32 59 0 17 5 31 13 31 97 6 131 13 139 27 6 11 16 15 29 11
13 -4 19 -2 19 9 0 9 6 16 13 16 7 0 23 11 35 25 12 14 17 25 12 25 -14 0 -12
27 3 37 6 4 44 10 82 13 l70 5 3 38 c3 30 7 37 25 37 33 0 45 12 49 45 3 26 7
30 38 33 19 2 39 10 43 18 4 8 15 14 22 14 8 0 15 8 15 18 1 15 2 15 15 -2 15
-19 15 -19 15 2 0 12 5 23 10 23 6 1 15 3 20 4 6 1 26 3 46 4 19 0 33 5 30 10
-3 4 4 17 15 27 16 14 40 20 100 23 49 2 82 8 89 16 6 8 19 11 28 8 9 -3 14
-3 10 1 -3 4 -13 9 -22 10 -9 1 -18 6 -19 11 -2 11 82 27 101 20 7 -3 11 -1 7
4 -3 5 13 12 35 16 33 6 40 11 40 30 0 20 7 25 36 31 26 5 39 3 46 -7 7 -10 7
-8 3 9 -8 28 6 29 23 2z m-5498 1 c0 -6 -4 -13 -10 -16 -5 -3 -10 1 -10 9 0 9
5 16 10 16 6 0 10 -4 10 -9z m44 -23 c3 -13 6 -67 6 -121 0 -74 4 -102 15
-113 8 -9 15 -24 15 -35 0 -10 5 -19 11 -19 6 0 9 -6 6 -14 -3 -8 -3 -17 1
-21 4 -4 7 -12 7 -18 0 -6 16 -21 36 -32 20 -11 37 -23 39 -27 1 -4 4 -17 7
-28 4 -14 14 -20 34 -20 18 0 32 -7 39 -20 6 -11 17 -20 25 -20 8 0 15 -4 15
-10 0 -5 6 -10 14 -10 8 0 16 -7 19 -15 4 -8 28 -20 54 -28 43 -12 48 -17 51
-45 3 -27 8 -31 35 -34 18 -2 33 -9 33 -15 1 -7 2 -17 3 -22 0 -5 14 -14 30
-21 34 -14 36 -20 40 -122 2 -66 0 -78 -13 -78 -9 0 -16 -5 -16 -10 0 -6 -11
-8 -25 -6 -17 3 -25 0 -26 -10 -3 -30 -4 -34 -14 -36 -5 -2 -11 7 -13 19 -3
22 -3 22 -23 2 -11 -11 -17 -24 -14 -28 2 -5 -2 -15 -11 -22 -9 -7 -20 -22
-25 -34 -8 -19 -8 -19 -15 3 -3 13 -12 21 -18 19 -11 -4 -13 -10 -15 -54 -1
-13 -10 -24 -23 -29 -30 -9 -38 -22 -38 -65 0 -25 -4 -36 -15 -36 -8 0 -15 4
-15 9 0 4 -7 8 -15 8 -8 0 -15 -4 -15 -8 0 -5 -12 -14 -26 -20 -15 -7 -22 -17
-18 -23 5 -8 -3 -10 -25 -7 -18 3 -36 -1 -42 -8 -6 -7 -16 -11 -23 -8 -7 3
-18 -8 -25 -23 -13 -28 -13 -28 -22 -5 -10 27 -25 29 -32 2 -7 -28 -51 -36
-74 -13 -11 11 -17 25 -15 31 2 7 -7 12 -22 12 -15 0 -31 8 -38 20 -7 11 -20
20 -29 20 -9 0 -22 7 -29 15 -7 8 -18 15 -25 15 -7 0 -15 8 -18 19 -3 11 -16
20 -33 23 -27 3 -29 1 -31 -34 -2 -32 1 -38 18 -38 11 0 18 -4 15 -9 -3 -5 8
-11 24 -15 25 -5 30 -10 30 -36 0 -28 2 -30 39 -30 l39 0 4 -50 c4 -68 -3 -93
-32 -101 -14 -4 -22 -7 -19 -8 4 -1 4 -15 0 -33 -6 -27 -11 -32 -36 -33 -17 0
-30 -6 -31 -12 -1 -7 -2 -24 -3 -38 -1 -29 -17 -34 -24 -7 -3 9 -5 4 -6 -13
-2 -49 -12 -77 -27 -71 -7 3 -16 1 -19 -4 -4 -6 1 -10 9 -10 10 0 16 -9 16
-23 0 -20 -5 -24 -35 -25 -53 -2 -75 -18 -75 -53 0 -29 -2 -31 -27 -24 -16 4
-34 8 -40 8 -23 1 -2 12 23 12 13 0 24 4 24 10 0 5 -8 9 -17 9 -10 -1 -31 -2
-46 -2 -17 -1 -26 -6 -22 -12 4 -6 0 -21 -7 -33 -25 -38 -30 -60 -13 -53 17 6
21 -9 4 -20 -6 -3 -16 -1 -22 5 -16 16 -47 14 -47 -4 0 -8 -5 -15 -10 -15 -6
0 -9 -13 -8 -29 2 -22 5 -27 14 -20 8 7 14 6 19 -1 3 -5 0 -12 -7 -14 -18 -6
-88 -17 -115 -17 -13 -1 -23 -7 -23 -15 0 -17 5 -17 32 -3 18 9 19 8 13 -10
-4 -12 -2 -21 4 -21 6 0 11 -4 11 -10 0 -5 -16 -9 -36 -8 -42 2 -66 -22 -60
-58 3 -15 0 -21 -8 -18 -19 7 -121 -23 -119 -35 2 -5 -4 -8 -11 -5 -10 4 -16
-3 -18 -23 -2 -20 -9 -28 -23 -29 -50 -2 -54 -5 -61 -39 -6 -34 -8 -35 -50
-35 -44 0 -44 0 -44 -35 l0 -35 -192 2 -193 3 -3 27 c-3 22 -9 28 -45 34 -23
4 -47 7 -54 6 -8 -2 -14 24 -19 77 -6 72 -9 80 -29 85 -13 3 -31 3 -40 0 -14
-6 -16 15 -15 215 1 122 5 219 9 216 5 -2 6 -16 3 -30 -3 -20 -1 -24 12 -19 9
3 16 14 16 23 0 14 2 14 10 1 8 -13 10 -12 11 5 1 11 1 23 0 28 0 4 3 7 9 7 6
0 10 27 10 60 l0 60 40 0 40 0 1 68 c1 37 1 70 1 73 -1 4 14 10 33 13 32 6 35
10 35 43 0 20 3 33 6 30 12 -12 64 27 65 48 3 45 5 50 24 51 48 2 53 5 59 37
5 26 11 32 32 34 31 1 44 17 44 56 0 22 5 27 24 27 38 0 56 10 57 34 0 11 3
15 6 9 3 -10 8 -10 19 1 8 8 14 18 14 23 0 13 106 33 169 33 48 0 52 2 40 16
-14 17 -16 98 -4 160 3 21 10 33 13 28 14 -18 33 -14 42 10 7 19 17 25 47 28
34 3 37 6 38 33 0 19 5 30 15 31 8 0 25 2 37 2 17 2 22 9 25 35 2 27 8 33 31
35 20 3 27 9 27 26 0 31 20 54 50 58 16 2 26 10 28 23 7 49 13 62 27 63 8 1
22 3 30 4 8 1 15 7 15 14 0 8 12 20 28 29 20 12 22 15 7 13 -14 -2 -21 4 -23
20 -2 15 2 22 13 22 9 0 14 -4 11 -9 -3 -4 6 -6 19 -3 14 2 25 9 25 15 0 6 3
8 6 4 3 -3 14 3 25 14 19 19 16 48 -5 50 -25 1 32 18 65 18 28 1 38 6 42 22 3
11 15 23 26 26 12 3 21 10 21 16 0 6 3 8 6 4 10 -10 32 18 31 39 -2 16 4 18
32 16 18 -2 31 0 28 5 -15 24 98 92 141 84 6 -1 12 2 12 8 0 5 -6 12 -12 14
-8 4 -7 6 3 6 9 1 19 -9 23 -21z m2762 -24 c-3 -9 -6 -20 -6 -25 0 -6 -4 -8
-9 -4 -5 3 -13 0 -17 -7 -5 -7 -10 -4 -16 11 -11 30 -3 41 29 41 19 0 24 -4
19 -16z m-68 -85 c3 -23 -1 -27 -30 -32 -18 -3 -48 -9 -65 -13 -30 -6 -33 -4
-32 17 0 13 3 18 6 12 2 -7 18 -13 34 -13 26 0 29 3 29 31 0 27 3 30 28 27 21
-2 28 -9 30 -29z m469 -45 c-3 -3 -12 -4 -19 -1 -8 3 -5 6 6 6 11 1 17 -2 13
-5z m-607 -26 c0 -5 0 -22 0 -38 0 -30 0 -30 -24 -15 -23 15 -25 15 -35 -2 -9
-15 -10 -12 -11 19 0 20 6 39 13 42 17 7 58 3 57 -6z m-2012 -248 c7 0 11 -4
8 -9 -7 -11 -54 -2 -63 12 -4 6 2 8 18 4 13 -4 30 -7 37 -7z m119 -102 c-3 -8
-6 -5 -6 6 -1 11 2 17 5 13 3 -3 4 -12 1 -19z m-1352 -18 c3 -5 1 -10 -4 -10
-6 0 -11 5 -11 10 0 6 2 10 4 10 3 0 8 -4 11 -10z m1809 -96 c3 -8 2 -12 -4
-9 -6 3 -10 10 -10 16 0 14 7 11 14 -7z m-28 -100 c17 -14 17 -15 1 -10 -10 3
-23 6 -28 6 -5 0 -9 5 -9 10 0 14 13 12 36 -6z m1131 -20 c-3 -3 -12 -4 -19
-1 -8 3 -5 6 6 6 11 1 17 -2 13 -5z m-682 -244 c3 -5 2 -10 -4 -10 -5 0 -13 5
-16 10 -3 6 -2 10 4 10 5 0 13 -4 16 -10z m-476 -19 c8 -1 11 -7 7 -17 -3 -8
0 -22 8 -30 17 -16 30 -19 21 -4 -3 6 -1 10 4 10 6 0 11 -6 11 -14 0 -7 7 -19
15 -26 9 -7 13 -15 10 -18 -9 -9 17 -32 36 -32 11 0 19 -6 20 -12 0 -10 2 -10
6 0 6 16 23 15 23 -2 0 -8 11 -14 28 -14 57 -1 123 -23 132 -45 5 -12 9 -16 9
-9 1 20 21 13 21 -8 0 -14 7 -20 24 -20 24 0 36 -16 36 -49 0 -12 7 -17 23
-16 12 1 29 -3 37 -10 8 -7 30 -16 48 -20 27 -6 32 -11 32 -36 0 -19 -5 -29
-15 -29 -8 0 -15 -4 -15 -10 0 -5 5 -10 10 -10 16 0 11 -47 -6 -54 -9 -3 -38
-6 -65 -6 -47 0 -49 -1 -49 -29 0 -27 -2 -29 -60 -35 l-60 -7 3 -32 c2 -26 -2
-33 -20 -35 -18 -3 -23 1 -23 20 0 19 -3 18 -19 -12 -16 -30 -23 -35 -49 -32
-16 2 -33 -1 -37 -7 -3 -6 -1 -11 4 -11 6 0 11 -4 11 -10 0 -5 -7 -10 -15 -10
-8 0 -15 -6 -15 -14 0 -9 -13 -14 -40 -14 -48 -1 -60 -7 -60 -33 0 -15 -7 -19
-39 -19 -38 0 -39 -1 -46 -40 -7 -41 -8 -42 -95 -54 -20 -2 -26 -9 -28 -34 -3
-27 -7 -32 -30 -32 -15 0 -34 5 -42 10 -13 8 -12 10 3 10 15 0 15 2 -3 20 -16
16 -39 20 -133 26 -85 5 -116 4 -122 -5 -4 -7 -2 -18 5 -24 10 -9 14 -9 18 3
3 10 9 3 17 -20 9 -27 18 -36 43 -41 18 -4 35 -3 38 2 12 21 34 8 34 -20 0
-27 -3 -29 -57 -37 -53 -8 -58 -11 -66 -41 -9 -31 -12 -32 -76 -38 -89 -9 -86
-7 -83 -48 l4 -37 -61 0 -61 0 0 -41 c0 -26 -4 -38 -11 -34 -6 4 -34 4 -64 0
-51 -6 -53 -8 -59 -40 -6 -29 -11 -34 -39 -37 -28 -3 -33 -7 -38 -38 -4 -19
-7 -30 -8 -23 0 6 -9 10 -18 8 -10 -2 -24 -4 -31 -4 -7 -1 -11 -5 -8 -10 4 -5
-7 -12 -24 -16 -39 -9 -48 -24 -24 -43 16 -13 17 -14 2 -9 -10 4 -18 2 -18 -4
0 -6 -7 -8 -16 -5 -8 3 -13 2 -10 -3 3 -5 -1 -11 -9 -15 -8 -3 -15 -15 -15
-26 0 -11 -4 -20 -10 -20 -5 0 -10 -8 -10 -17 0 -16 2 -16 11 -3 8 11 10 11 7
1 -2 -7 -20 -15 -41 -17 -46 -4 -57 -10 -57 -33 0 -9 -6 -23 -12 -30 -11 -10
-10 -12 2 -9 8 2 18 10 22 18 5 11 7 9 7 -7 1 -18 -5 -22 -36 -25 l-38 -3 -3
-70 c-2 -48 -8 -72 -18 -78 -7 -4 -14 -16 -14 -25 0 -30 -17 -45 -56 -51 -36
-6 -39 -9 -42 -44 l-3 -37 -112 0 c-62 0 -119 -5 -127 -10 -8 -5 -10 -10 -5
-10 6 0 -1 -7 -15 -15 -14 -8 -19 -14 -12 -15 6 0 12 -4 12 -8 0 -5 -40 -8
-89 -8 -77 1 -93 4 -113 22 -13 12 -33 27 -46 33 -12 7 -22 17 -21 24 4 29 -2
58 -10 53 -5 -3 -19 2 -31 12 -22 18 -23 26 -28 230 -2 117 -1 232 2 257 7 41
10 45 36 45 29 0 40 15 40 55 0 41 11 55 42 55 25 0 29 4 26 23 -2 12 -7 25
-12 29 -5 3 17 14 49 23 41 12 54 20 44 26 -12 8 -12 11 1 19 10 6 11 10 3 10
-9 0 -7 6 5 18 9 10 20 14 23 9 8 -12 20 20 13 37 -4 9 9 17 41 25 44 11 46
13 43 44 -3 31 -2 32 42 37 42 5 45 7 48 37 3 29 7 33 45 40 38 8 42 12 45 41
3 30 5 32 45 32 23 0 66 3 95 6 l52 7 0 48 c0 64 14 75 102 84 40 4 93 9 117
11 25 2 48 10 53 17 6 9 8 9 8 0 0 -15 56 -18 65 -3 11 17 -5 32 -21 19 -8 -6
-14 -7 -14 -2 0 12 -43 11 -52 -2 -15 -20 -20 6 -13 64 l7 61 39 0 c39 0 61
21 52 48 -3 8 6 12 27 12 18 0 29 4 25 10 -3 6 3 10 13 10 13 0 24 10 30 29 9
26 15 29 71 35 58 7 62 9 67 36 6 28 26 40 70 40 24 0 44 20 48 47 3 20 48 31
124 32 41 1 42 2 42 36 0 32 2 35 29 35 37 0 62 10 55 21 -3 5 3 9 13 9 24 1
69 26 65 37 -2 4 12 12 32 16 20 5 36 14 36 20 0 11 39 11 209 -2z m506 -10
c3 -5 1 -12 -5 -16 -5 -3 -10 1 -10 9 0 18 6 21 15 7z m2585 -13 c0 -5 -25 -8
-56 -8 -30 0 -53 3 -51 8 3 4 28 7 56 7 28 0 51 -3 51 -7z m-86 -30 c74 3 95
0 106 -12 7 -9 27 -16 44 -16 17 0 58 -7 91 -15 71 -17 98 -19 90 -5 -3 6 4
10 17 10 18 0 20 -2 8 -10 -13 -8 -12 -10 3 -10 10 0 15 -4 12 -10 -3 -5 0
-10 8 -10 8 0 17 -7 21 -15 3 -9 18 -15 38 -15 36 0 61 -12 57 -26 -2 -5 0
-19 5 -31 7 -21 33 -30 68 -24 4 0 7 -7 6 -17 -4 -46 1 -51 51 -58 l48 -6 7
-52 c7 -64 8 -194 0 -223 -4 -13 -11 -20 -20 -16 -10 4 -14 -3 -14 -21 0 -18
-5 -26 -18 -26 -21 0 -50 -31 -44 -48 2 -7 -2 -12 -8 -12 -7 0 -10 -7 -6 -15
3 -8 0 -15 -7 -15 -9 0 -8 -3 1 -9 9 -5 -1 -10 -30 -15 -26 -4 -49 -15 -59
-28 l-16 -20 -20 21 c-20 21 -63 25 -91 7 -7 -4 -16 -4 -22 -1 -5 3 -10 1 -10
-4 0 -6 -9 -11 -21 -11 -11 0 -18 4 -15 9 3 5 -21 12 -54 15 -60 7 -66 12 -61
54 1 8 -3 20 -10 28 -6 8 -9 14 -5 14 3 0 0 16 -9 36 -8 19 -14 38 -12 42 1 4
-2 7 -8 7 -5 0 -9 -5 -7 -12 2 -8 -6 -13 -19 -13 -14 0 -19 5 -16 14 4 9 -2
17 -14 21 -10 4 -19 11 -19 16 0 5 -7 9 -15 9 -9 0 -15 10 -16 23 -1 15 -3 17
-6 5 -5 -19 -35 -34 -32 -15 7 55 -8 70 -83 82 -34 5 -38 9 -38 34 0 35 -13
41 -96 41 -63 0 -64 0 -52 -22 22 -39 34 -46 80 -53 38 -6 45 -10 41 -26 -7
-25 14 -49 43 -49 15 0 24 -6 24 -15 0 -22 39 -57 56 -51 12 5 14 -26 14 -199
l0 -205 -35 0 c-36 0 -35 2 -39 -60 -1 -9 -14 -17 -36 -20 -29 -4 -36 -10 -40
-35 -5 -28 -9 -30 -52 -33 -37 -2 -48 -7 -53 -23 -6 -17 -15 -19 -76 -18 -38
1 -72 -1 -76 -5 -3 -3 1 -6 10 -6 9 0 17 -4 17 -10 0 -10 -50 -14 -119 -10
-18 1 -37 -4 -41 -11 -5 -6 -24 -17 -44 -24 -33 -12 -35 -11 -25 6 7 14 6 17
-5 13 -8 -3 -16 -14 -19 -24 -3 -11 -13 -18 -28 -17 -35 1 -53 -6 -61 -23 -5
-12 -7 -12 -7 3 -2 33 -20 17 -24 -20 l-4 -38 -1 43 c-1 26 -6 41 -12 37 -5
-3 -10 3 -10 14 0 11 -12 29 -27 41 -16 12 -30 34 -33 48 -6 33 -45 43 -64 17
-11 -15 -12 -11 -12 23 0 31 -6 45 -24 60 -27 22 -53 18 -46 -7 2 -9 7 -33 11
-53 3 -23 11 -38 20 -38 9 0 12 -6 9 -15 -5 -11 1 -15 20 -15 26 0 26 -1 26
-75 l0 -75 29 0 c21 0 32 -6 36 -20 7 -23 5 -120 -4 -135 -6 -10 -7 -16 -10
-34 0 -6 -22 -11 -48 -13 -46 -3 -48 -4 -51 -35 -4 -37 -25 -45 -119 -43 -67
1 -110 -4 -120 -13 -3 -4 -17 -7 -31 -7 -15 0 -26 -7 -29 -20 -4 -14 -17 -21
-47 -25 -29 -5 -52 -16 -70 -36 -20 -21 -37 -29 -61 -29 -35 0 -45 -13 -45
-56 0 -19 -6 -24 -27 -26 -16 0 -35 -1 -43 -2 -10 -1 -16 -14 -18 -43 l-3 -42
-50 -7 c-41 -5 -50 -11 -55 -30 -3 -13 -10 -21 -15 -18 -5 3 -9 0 -9 -5 0 -6
5 -11 12 -11 6 0 9 -3 6 -6 -4 -3 -17 0 -30 7 -20 10 -21 10 -11 -2 9 -12 -6
-14 -100 -16 -86 -2 -115 -6 -123 -18 -6 -8 -17 -15 -25 -16 -11 0 -11 -2 1
-6 10 -4 4 -10 -20 -19 -25 -9 -29 -13 -15 -14 17 -2 16 -3 -5 -10 -14 -4 -80
-8 -148 -9 l-122 -1 4 -25 c3 -14 0 -25 -5 -25 -6 0 -7 -5 -4 -10 3 -5 1 -10
-4 -10 -6 0 -11 5 -11 10 0 6 -19 11 -42 12 l-43 1 45 7 c40 6 35 7 -40 11
l-85 3 80 3 c44 2 83 7 87 11 4 4 -30 6 -75 4 -59 -2 -85 -7 -94 -18 -10 -14
-12 -14 -20 1 -7 11 -24 16 -60 17 l-51 0 -7 109 c-4 60 -4 154 0 209 6 84 10
102 26 111 10 5 19 20 19 32 0 12 7 31 15 41 8 11 15 30 15 42 0 23 22 48 33
37 4 -3 8 3 8 15 1 12 2 27 3 34 0 7 17 17 36 22 41 11 50 21 50 59 0 23 4 27
28 27 57 0 72 10 72 46 0 33 0 33 53 36 l52 3 3 38 3 37 49 0 49 0 3 38 c3 36
4 37 43 37 39 0 40 1 43 37 l3 37 67 3 67 3 3 36 3 36 67 6 c37 3 75 9 85 12
18 8 24 35 7 35 -5 0 -10 4 -10 9 0 5 34 11 76 13 42 2 78 9 82 15 9 14 44 12
55 -2 4 -5 6 4 4 20 -3 27 -8 31 -48 36 l-44 6 46 1 c49 2 59 11 59 58 0 23 3
24 69 24 l70 0 3 33 c3 31 4 32 55 35 47 3 52 5 58 31 5 23 10 27 29 24 13 -3
27 0 30 6 4 6 29 11 57 11 47 0 49 1 49 29 0 27 4 29 60 41 57 12 90 30 56 30
-20 0 -20 7 0 27 9 10 32 15 60 15 24 -1 44 3 44 9 0 6 5 7 10 4 6 -3 10 -1
10 4 0 6 -5 11 -11 11 -8 0 -9 4 0 13 6 8 8 17 5 20 -3 3 11 9 32 12 61 10 64
13 64 43 0 26 3 29 25 24 14 -2 32 1 39 8 8 6 30 10 48 8 31 -3 33 -1 33 29 0
24 3 29 14 23 9 -5 20 -2 29 6 7 8 22 14 32 14 11 0 17 5 15 13 -3 6 -1 17 3
22 10 14 78 34 127 37 33 3 43 9 60 35 18 29 25 32 68 33 30 0 46 4 42 10 -3
6 -1 10 5 10 6 0 18 7 26 15 9 8 31 15 50 15 30 0 34 3 35 28 1 15 3 20 5 12
4 -12 21 -15 98 -12z m1711 2 c-3 -5 -13 -10 -21 -10 -8 0 -14 5 -14 10 0 6 9
10 21 10 11 0 17 -4 14 -10z m45 0 c0 -5 -5 -10 -11 -10 -5 0 -7 5 -4 10 3 6
8 10 11 10 2 0 4 -4 4 -10z m-17 -27 c-13 -2 -33 -2 -45 0 -13 2 -3 4 22 4 25
0 35 -2 23 -4z m-3773 -183 c0 -5 -2 -10 -4 -10 -3 0 -8 5 -11 10 -3 6 -1 10
4 10 6 0 11 -4 11 -10z m-174 -200 c8 0 14 5 14 10 0 6 4 10 9 10 6 0 8 -9 6
-20 -2 -13 2 -20 11 -20 8 0 14 5 14 10 0 16 58 12 85 -6 14 -9 39 -14 62 -12
33 3 38 0 41 -19 2 -12 9 -26 15 -31 7 -6 66 -14 132 -19 87 -6 119 -12 117
-21 -1 -6 4 -12 11 -12 7 0 30 -9 51 -20 21 -10 58 -20 82 -21 43 -3 64 -19
24 -19 -11 0 -19 -6 -18 -12 2 -8 -9 -14 -25 -16 -26 -3 -27 -5 -11 -16 20
-15 9 -40 -15 -32 -14 5 -13 4 2 -8 15 -11 15 -15 3 -25 -11 -10 -15 -8 -19 6
-4 14 -5 13 -6 -4 0 -13 -5 -23 -11 -23 -5 0 -10 -5 -10 -11 0 -5 6 -7 13 -3
8 5 8 3 -2 -9 -7 -9 -17 -14 -22 -11 -5 3 -9 0 -9 -5 0 -6 -14 -11 -31 -11
-16 0 -28 -4 -24 -9 3 -6 -11 -11 -32 -13 -33 -3 -39 -7 -47 -35 -7 -27 -14
-33 -37 -33 -47 0 -59 -10 -59 -46 l0 -33 -72 -3 -73 -3 -3 -37 c-3 -36 -4
-37 -50 -40 -45 -3 -47 -4 -47 -34 0 -27 -4 -31 -28 -32 -41 -1 -67 -12 -67
-27 0 -11 -8 -13 -29 -9 -23 5 -32 2 -40 -14 -6 -10 -7 -22 -4 -26 3 -3 -1 -6
-10 -6 -10 0 -17 -8 -17 -17 0 -14 -2 -15 -9 -4 -5 8 -34 15 -72 18 -48 4 -68
10 -82 26 -10 11 -28 22 -40 23 -12 1 -25 3 -29 3 -4 1 -8 11 -11 24 -3 21 -4
21 -12 2 -5 -11 -13 -23 -18 -26 -5 -3 12 -11 36 -18 34 -8 45 -15 43 -28 -2
-9 -8 -19 -14 -21 -21 -7 -13 -18 23 -32 19 -7 33 -16 31 -19 -2 -3 0 -15 5
-26 7 -19 8 -19 8 3 1 12 4 22 9 22 4 0 6 -18 4 -40 -3 -25 -9 -40 -18 -40
-27 0 -63 -23 -67 -44 -3 -17 -5 -16 -6 6 0 15 -5 30 -11 33 -10 6 -13 -11
-10 -59 1 -23 -1 -28 -15 -23 -9 4 -14 3 -10 -3 3 -6 -3 -10 -14 -10 -11 0
-22 -9 -26 -20 -3 -11 -15 -20 -26 -20 -11 0 -19 -7 -19 -16 0 -8 3 -13 8 -11
4 3 16 1 27 -3 15 -5 10 -8 -23 -13 -27 -5 -42 -12 -42 -22 0 -8 -9 -15 -19
-15 -13 0 -21 -8 -23 -22 -2 -13 -12 -24 -25 -28 -32 -8 -73 -71 -59 -93 13
-21 0 -36 -40 -42 -59 -10 -74 -16 -71 -28 1 -7 -7 -11 -18 -10 -11 1 -14 0
-7 -3 17 -8 15 -24 -3 -24 -8 0 -15 -4 -15 -9 0 -4 -32 -12 -71 -15 -39 -4
-69 -10 -66 -13 3 -2 1 -18 -5 -34 -8 -22 -16 -29 -36 -29 -36 0 -47 -9 -59
-45 -7 -22 -17 -31 -36 -33 -22 -3 -27 -9 -28 -33 -1 -16 -2 -35 -3 -41 -1 -9
-27 -15 -81 -18 l-80 -5 -5 -40 c-5 -36 -8 -40 -36 -43 -28 -3 -32 -7 -38 -41
-3 -22 -11 -39 -18 -38 -63 2 -78 -3 -78 -28 0 -20 -5 -25 -25 -25 -14 0 -25
5 -25 10 0 6 -7 10 -15 10 -9 0 -12 6 -9 15 5 13 -19 15 -184 15 -117 0 -193
4 -197 10 -3 6 -17 10 -30 10 -13 0 -27 5 -30 10 -4 6 -11 8 -16 5 -5 -4 -9 6
-9 20 0 15 -4 24 -10 20 -5 -3 -10 1 -10 10 0 9 -4 14 -9 11 -20 -13 -27 260
-13 454 6 66 10 85 22 86 30 1 60 16 60 30 0 8 5 14 10 14 6 0 10 6 10 13 0
12 44 37 67 37 7 0 16 12 19 28 9 38 23 52 51 52 24 0 35 15 37 53 1 18 10 23
50 31 48 8 48 9 43 42 l-6 33 52 3 c50 3 52 4 55 34 3 35 25 44 103 44 30 0
39 4 41 18 2 32 4 37 11 48 4 7 30 12 57 12 57 0 62 2 65 34 1 13 3 26 4 31 0
4 27 7 59 7 66 0 79 6 83 40 4 21 10 25 49 28 82 6 105 16 108 45 3 22 7 25
20 18 36 -18 72 -22 72 -7 0 14 29 26 67 26 18 0 22 7 25 37 3 37 4 38 55 46
48 8 54 11 61 40 7 27 13 33 42 35 38 4 50 15 50 50 0 12 3 21 8 21 4 -1 10 0
15 1 17 6 28 8 52 9 21 1 25 6 25 31 0 30 1 30 54 30 29 0 74 3 99 6 42 6 46
9 49 38 3 27 7 31 42 37 37 6 56 21 56 46 0 7 27 14 70 19 l70 7 1 36 c1 23 3
28 6 14 2 -13 11 -23 19 -23z m-2403 -350 c3 -11 1 -23 -4 -26 -5 -3 -9 6 -9
20 0 31 6 34 13 6z m4062 -450 c3 -5 1 -10 -4 -10 -6 0 -11 5 -11 10 0 6 2 10
4 10 3 0 8 -4 11 -10z m-4935 -480 c0 -5 -2 -10 -4 -10 -3 0 -8 5 -11 10 -3 6
-1 10 4 10 6 0 11 -4 11 -10z m1833 -617 c-13 -2 -33 -2 -45 0 -13 2 -3 4 22
4 25 0 35 -2 23 -4z"/>
<path d="M3818 5433 c7 -3 16 -2 19 1 4 3 -2 6 -13 5 -11 0 -14 -3 -6 -6z"/>
<path d="M4260 5224 c0 -40 2 -44 25 -44 22 0 25 4 25 39 0 33 -3 39 -25 43
-24 5 -25 3 -25 -38z"/>
<path d="M4558 5203 c7 -3 16 -2 19 1 4 3 -2 6 -13 5 -11 0 -14 -3 -6 -6z"/>
<path d="M4188 5185 c-3 -3 -2 -22 1 -43 6 -33 10 -37 39 -40 31 -3 32 -2 32
31 0 30 -4 37 -31 46 -37 13 -34 12 -41 6z"/>
<path d="M4122 5109 c-17 -6 -22 -17 -22 -44 l0 -35 50 0 c51 0 55 4 44 45 -7
26 -45 44 -72 34z"/>
<path d="M4046 5096 c3 -9 11 -16 16 -16 13 0 5 23 -10 28 -7 2 -10 -2 -6 -12z"/>
<path d="M4262 4993 c3 -36 5 -38 38 -40 19 -1 29 0 23 3 -20 9 -15 40 10 57
21 15 21 16 -26 16 l-48 1 3 -37z"/>
<path d="M3583 4813 c9 -2 23 -2 30 0 6 3 -1 5 -18 5 -16 0 -22 -2 -12 -5z"/>
<path d="M3363 4792 l-63 -3 0 -32 c0 -18 3 -55 6 -84 6 -49 8 -52 38 -55 25
-2 32 -8 34 -30 3 -27 6 -28 58 -28 l54 0 0 -35 c0 -31 3 -35 28 -36 55 -2 57
-4 60 -36 l3 -33 88 0 88 0 8 92 c6 82 5 93 -11 105 -10 7 -23 13 -28 13 -6 0
-19 14 -28 30 -16 28 -21 30 -72 30 l-55 0 -3 37 c-3 35 -6 38 -43 45 -22 5
-47 11 -55 15 -21 8 -35 9 -107 5z m127 -113 l0 -40 -52 3 -53 3 -3 38 -3 37
55 0 56 0 0 -41z m169 -75 c29 -6 31 -9 31 -51 l0 -45 -42 6 c-24 4 -53 8 -65
9 -19 2 -23 8 -23 38 0 20 3 39 7 42 8 9 51 9 92 1z"/>
<path d="M3928 4573 c7 -3 16 -2 19 1 4 3 -2 6 -13 5 -11 0 -14 -3 -6 -6z"/>
<path d="M3068 4513 c6 -2 18 -2 25 0 6 3 1 5 -13 5 -14 0 -19 -2 -12 -5z"/>
<path d="M3160 4406 c0 -9 30 -14 35 -6 4 6 -3 10 -14 10 -12 0 -21 -2 -21 -4z"/>
<path d="M3206 4391 c-3 -4 6 -13 20 -20 15 -6 23 -7 19 -1 -3 5 0 10 7 11 7
0 4 4 -7 9 -27 11 -33 12 -39 1z"/>
<path d="M3070 4074 c0 -8 5 -12 10 -9 6 4 8 11 5 16 -9 14 -15 11 -15 -7z"/>
<path d="M4350 3726 c0 -2 7 -7 16 -10 8 -3 12 -2 9 4 -6 10 -25 14 -25 6z"/>
<path d="M3825 3707 c-10 -8 -14 -17 -9 -20 6 -3 15 3 22 14 14 23 12 24 -13
6z"/>
<path d="M3858 3693 c6 -2 18 -2 25 0 6 3 1 5 -13 5 -14 0 -19 -2 -12 -5z"/>
<path d="M4657 3551 c24 -23 33 -26 33 -13 0 5 -12 14 -27 21 l-28 13 22 -21z"/>
<path d="M4706 3533 c-6 -14 -5 -15 5 -6 7 7 10 15 7 18 -3 3 -9 -2 -12 -12z"/>
<path d="M4741 3510 c-10 -5 -9 -8 2 -13 7 -3 19 -2 26 3 10 5 9 8 -2 13 -7 3
-19 2 -26 -3z"/>
<path d="M4831 3487 c-1 -15 -5 -16 -23 -7 -21 10 -20 9 2 -9 20 -16 26 -17
28 -5 2 8 1 20 -1 27 -3 7 -6 4 -6 -6z"/>
<path d="M4152 3470 c0 -14 2 -19 5 -12 2 6 2 18 0 25 -3 6 -5 1 -5 -13z"/>
<path d="M4430 3386 c0 -2 7 -6 15 -10 8 -3 15 -1 15 4 0 6 -7 10 -15 10 -8 0
-15 -2 -15 -4z"/>
<path d="M4438 3353 c7 -3 16 -2 19 1 4 3 -2 6 -13 5 -11 0 -14 -3 -6 -6z"/>
<path d="M4940 2985 c0 -8 4 -15 8 -15 5 0 9 7 9 15 0 8 -4 15 -9 15 -4 0 -8
-7 -8 -15z"/>
<path d="M8410 4210 c0 -5 7 -10 16 -10 8 0 12 5 9 10 -3 6 -10 10 -16 10 -5
0 -9 -4 -9 -10z"/>
<path d="M2600 4210 c0 -5 10 -10 23 -10 18 0 19 2 7 10 -19 13 -30 13 -30 0z"/>
<path d="M2159 3339 c-12 -12 -17 -25 -12 -30 12 -12 92 -16 93 -4 1 6 7 16
13 23 27 34 -61 44 -94 11z"/>
<path d="M2299 3282 c9 -7 11 -19 7 -36 -5 -21 -3 -26 12 -26 11 0 48 -3 83
-6 l64 -6 -38 37 c-32 32 -46 39 -90 42 -35 3 -48 1 -38 -5z"/>
<path d="M1960 2270 c6 -11 15 -20 20 -20 6 0 10 9 10 20 0 13 -7 20 -20 20
-18 0 -19 -3 -10 -20z"/>
<path d="M3030 2945 c0 -7 9 -15 21 -18 15 -4 19 -1 17 10 -4 19 -38 27 -38 8z"/>
<path d="M4146 2723 c-6 -14 -5 -15 5 -6 7 7 10 15 7 18 -3 3 -9 -2 -12 -12z"/>
<path d="M3020 2642 c14 -5 12 -29 -2 -35 -7 -3 1 -5 17 -5 17 1 49 -2 72 -5
45 -7 58 1 49 31 -5 15 -17 18 -76 18 -38 -1 -65 -2 -60 -4z"/>
<path d="M3183 2599 c-7 -8 -11 -28 -9 -44 2 -22 10 -31 32 -37 35 -10 85 -1
65 11 -7 5 -12 10 -10 12 1 2 0 15 -4 28 -5 19 -11 23 -31 19 -17 -4 -26 0
-28 10 -3 13 -5 13 -15 1z"/>
<path d="M3295 2498 c2 -18 3 -36 4 -40 1 -5 15 -8 32 -8 29 0 30 1 24 33 -10
44 -13 47 -39 47 -21 0 -23 -4 -21 -32z"/>
<path d="M2895 1971 c-3 -5 -1 -12 5 -16 5 -3 10 1 10 9 0 18 -6 21 -15 7z"/>
<path d="M1879 1929 c-10 -6 -7 -9 14 -9 29 0 35 5 14 13 -8 3 -20 1 -28 -4z"/>
<path d="M2670 1760 c0 -5 5 -10 10 -10 6 0 10 5 10 10 0 6 -4 10 -10 10 -5 0
-10 -4 -10 -10z"/>
<path d="M6390 2939 c0 -32 3 -40 10 -29 6 10 10 11 10 3 0 -9 23 -13 80 -13
47 0 80 4 80 10 0 6 7 10 15 10 21 0 19 27 -4 40 -11 5 -58 13 -105 16 l-86 7
0 -44z"/>
<path d="M7495 2700 c-3 -5 -1 -10 4 -10 6 0 11 5 11 10 0 6 -2 10 -4 10 -3 0
-8 -4 -11 -10z"/>
<path d="M5670 2330 c43 -7 43 -7 10 -9 l-35 -1 44 -20 c53 -25 51 -25 51 4 0
27 -23 37 -80 34 -33 -1 -32 -1 10 -8z"/>
<path d="M5780 2245 c0 -18 7 -28 25 -35 14 -5 25 -17 25 -27 1 -31 19 10 22
48 3 33 1 34 -34 37 -35 3 -38 1 -38 -23z"/>
<path d="M5025 1289 c-4 -6 -4 -13 0 -17 3 -3 9 -1 13 5 4 6 16 13 27 16 16 4
14 5 -7 6 -15 0 -30 -4 -33 -10z"/>
<path d="M3970 2321 c0 -21 6 -30 23 -35 36 -9 145 -7 152 4 3 6 -3 10 -14 10
-19 0 -26 10 -22 33 0 4 -6 7 -15 7 -8 0 -13 -4 -10 -9 9 -14 -4 -41 -20 -41
-8 0 -14 6 -14 14 0 22 -29 46 -56 46 -20 0 -24 -5 -24 -29z"/>
<path d="M4160 2251 c0 -22 36 -51 62 -51 27 0 35 14 20 36 -10 15 -82 28 -82
15z"/>
<path d="M4262 2159 c-14 -22 -7 -25 14 -5 8 8 11 17 6 20 -4 2 -13 -4 -20
-15z"/>
<path d="M4340 2140 c0 -5 5 -10 10 -10 6 0 10 5 10 10 0 6 -4 10 -10 10 -5 0
-10 -4 -10 -10z"/>
<path d="M2680 1625 c0 -8 2 -15 4 -15 2 0 6 7 10 15 3 8 1 15 -4 15 -6 0 -10
-7 -10 -15z"/>
<path d="M7293 10080 c0 -47 2 -66 4 -42 2 23 2 61 0 85 -2 23 -4 4 -4 -43z"/>
<path d="M7013 10065 c0 -38 2 -53 4 -32 2 20 2 52 0 70 -2 17 -4 1 -4 -38z"/>
<path d="M6502 9980 c0 -14 2 -19 5 -12 2 6 2 18 0 25 -3 6 -5 1 -5 -13z"/>
<path d="M6530 9978 c0 -13 5 -30 10 -38 8 -13 10 -12 10 3 0 10 4 16 9 13 5
-4 20 -2 33 3 21 9 21 10 -9 10 -22 1 -33 6 -33 16 0 8 -4 15 -10 15 -5 0 -10
-10 -10 -22z"/>
<path d="M6578 9993 c12 -2 30 -2 40 0 9 3 -1 5 -23 4 -22 0 -30 -2 -17 -4z"/>
<path d="M6873 9930 c0 -41 2 -58 4 -37 2 20 2 54 0 75 -2 20 -4 3 -4 -38z"/>
<path d="M4022 9935 c0 -16 2 -22 5 -12 2 9 2 23 0 30 -3 6 -5 -1 -5 -18z"/>
<path d="M364 9800 c0 -69 1 -97 3 -62 2 34 2 90 0 125 -2 34 -3 6 -3 -63z"/>
<path d="M383 9845 c0 -44 2 -61 4 -37 2 23 2 59 0 80 -2 20 -4 1 -4 -43z"/>
<path d="M3978 9893 c6 -2 18 -2 25 0 6 3 1 5 -13 5 -14 0 -19 -2 -12 -5z"/>
<path d="M4355 9890 c3 -5 11 -10 16 -10 6 0 7 5 4 10 -3 6 -11 10 -16 10 -6
0 -7 -4 -4 -10z"/>
<path d="M6108 9893 c7 -3 16 -2 19 1 4 3 -2 6 -13 5 -11 0 -14 -3 -6 -6z"/>
<path d="M4330 9870 c0 -5 5 -10 11 -10 5 0 7 5 4 10 -3 6 -8 10 -11 10 -2 0
-4 -4 -4 -10z"/>
<path d="M6088 9873 c7 -3 16 -2 19 1 4 3 -2 6 -13 5 -11 0 -14 -3 -6 -6z"/>
<path d="M6126 9864 c-9 -9 -15 -19 -12 -21 3 -3 13 2 22 11 9 9 14 19 11 22
-2 3 -12 -3 -21 -12z"/>
<path d="M3856 9848 c-3 -13 -5 -52 -4 -88 1 -65 1 -65 8 20 7 90 6 105 -4 68z"/>
<path d="M7013 9800 c0 -25 2 -35 4 -22 2 12 2 32 0 45 -2 12 -4 2 -4 -23z"/>
<path d="M7294 9680 c0 -91 2 -128 3 -82 2 45 2 119 0 165 -1 45 -3 8 -3 -83z"/>
<path d="M3433 9725 c0 -27 2 -38 4 -22 2 15 2 37 0 50 -2 12 -4 0 -4 -28z"/>
<path d="M672 9655 c0 -16 2 -22 5 -12 2 9 2 23 0 30 -3 6 -5 -1 -5 -18z"/>
<path d="M7013 9640 c0 -25 2 -35 4 -22 2 12 2 32 0 45 -2 12 -4 2 -4 -23z"/>
<path d="M4563 9570 c0 -30 2 -43 4 -27 2 15 2 39 0 55 -2 15 -4 2 -4 -28z"/>
<path d="M4658 9613 c12 -2 32 -2 45 0 12 2 2 4 -23 4 -25 0 -35 -2 -22 -4z"/>
<path d="M4602 9585 c0 -16 2 -22 5 -12 2 9 2 23 0 30 -3 6 -5 -1 -5 -18z"/>
<path d="M6193 9603 c65 -2 168 -2 230 0 62 1 9 3 -118 3 -126 0 -177 -2 -112
-3z"/>
<path d="M4098 9523 c12 -2 32 -2 45 0 12 2 2 4 -23 4 -25 0 -35 -2 -22 -4z"/>
<path d="M5804 9325 c0 -71 1 -99 3 -62 2 37 2 96 0 130 -2 34 -3 4 -3 -68z"/>
<path d="M4563 9320 c0 -25 2 -35 4 -22 2 12 2 32 0 45 -2 12 -4 2 -4 -23z"/>
<path d="M5343 9300 c0 -36 2 -50 4 -32 2 17 2 47 0 65 -2 17 -4 3 -4 -33z"/>
<path d="M4608 9253 c7 -3 16 -2 19 1 4 3 -2 6 -13 5 -11 0 -14 -3 -6 -6z"/>
<path d="M363 9160 c0 -25 2 -35 4 -22 2 12 2 32 0 45 -2 12 -4 2 -4 -23z"/>
<path d="M4024 9020 c0 -102 2 -143 3 -92 2 50 2 134 0 185 -1 50 -3 9 -3 -93z"/>
<path d="M5821 9184 c0 -11 3 -14 6 -6 3 7 2 16 -1 19 -3 4 -6 -2 -5 -13z"/>
<path d="M5821 9144 c0 -11 3 -14 6 -6 3 7 2 16 -1 19 -3 4 -6 -2 -5 -13z"/>
<path d="M373 8960 c0 -47 2 -66 4 -42 2 23 2 61 0 85 -2 23 -4 4 -4 -43z"/>
<path d="M674 8760 c0 -69 1 -97 3 -62 2 34 2 90 0 125 -2 34 -3 6 -3 -63z"/>
<path d="M3432 8860 c0 -14 2 -19 5 -12 2 6 2 18 0 25 -3 6 -5 1 -5 -13z"/>
<path d="M373 8760 c0 -25 2 -35 4 -22 2 12 2 32 0 45 -2 12 -4 2 -4 -23z"/>
<path d="M4108 8783 c34 -2 88 -2 120 0 31 2 3 3 -63 3 -66 0 -92 -1 -57 -3z"/>
<path d="M373 8590 c0 -30 2 -43 4 -27 2 15 2 39 0 55 -2 15 -4 2 -4 -28z"/>
<path d="M3433 8600 c0 -25 2 -35 4 -22 2 12 2 32 0 45 -2 12 -4 2 -4 -23z"/>
<path d="M388 8483 c12 -2 32 -2 45 0 12 2 2 4 -23 4 -25 0 -35 -2 -22 -4z"/>
<path d="M1193 7433 c9 -2 23 -2 30 0 6 3 -1 5 -18 5 -16 0 -22 -2 -12 -5z"/>
<path d="M1618 7433 c12 -2 32 -2 45 0 12 2 2 4 -23 4 -25 0 -35 -2 -22 -4z"/>
<path d="M1708 7433 c6 -2 18 -2 25 0 6 3 1 5 -13 5 -14 0 -19 -2 -12 -5z"/>
<path d="M2488 7433 c17 -2 47 -2 65 0 17 2 3 4 -33 4 -36 0 -50 -2 -32 -4z"/>
<path d="M4360 7177 c0 -14 5 -29 10 -32 7 -4 8 3 4 22 -9 38 -14 42 -14 10z"/>
<path d="M7973 7123 c9 -2 25 -2 35 0 9 3 1 5 -18 5 -19 0 -27 -2 -17 -5z"/>
<path d="M7966 7055 c-3 -8 -1 -15 4 -15 6 0 10 7 10 15 0 8 -2 15 -4 15 -2 0
-6 -7 -10 -15z"/>
<path d="M2240 6859 c0 -5 5 -7 10 -4 6 3 10 8 10 11 0 2 -4 4 -10 4 -5 0 -10
-5 -10 -11z"/>
<path d="M370 6733 c0 -12 3 -14 8 -6 4 7 37 14 72 16 l65 3 -72 2 c-64 2 -73
0 -73 -15z"/>
<path d="M373 6605 c0 -22 2 -30 4 -17 2 12 2 30 0 40 -3 9 -5 -1 -4 -23z"/>
<path d="M373 6500 c0 -36 2 -50 4 -32 2 17 2 47 0 65 -2 17 -4 3 -4 -33z"/>
<path d="M8 6393 c7 -3 16 -2 19 1 4 3 -2 6 -13 5 -11 0 -14 -3 -6 -6z"/>
<path d="M398 6393 c18 -2 45 -2 60 0 15 2 0 4 -33 4 -33 0 -45 -2 -27 -4z"/>
<path d="M2572 6320 c0 -14 2 -19 5 -12 2 6 2 18 0 25 -3 6 -5 1 -5 -13z"/>
<path d="M6938 6303 c7 -3 16 -2 19 1 4 3 -2 6 -13 5 -11 0 -14 -3 -6 -6z"/>
<path d="M7003 6303 c9 -2 25 -2 35 0 9 3 1 5 -18 5 -19 0 -27 -2 -17 -5z"/>
<path d="M6840 6265 c0 -8 7 -15 16 -15 14 0 14 3 4 15 -7 8 -14 15 -16 15 -2
0 -4 -7 -4 -15z"/>
<path d="M4210 6171 c0 -6 4 -13 10 -16 6 -3 7 1 4 9 -7 18 -14 21 -14 7z"/>
<path d="M9860 5456 c0 -13 -6 -27 -12 -29 -8 -3 -6 -6 5 -6 12 -1 17 7 17 29
0 17 -2 30 -5 30 -3 0 -5 -11 -5 -24z"/>
<path d="M9761 5384 c0 -11 3 -14 6 -6 3 7 2 16 -1 19 -3 4 -6 -2 -5 -13z"/>
<path d="M9711 5224 c0 -11 3 -14 6 -6 3 7 2 16 -1 19 -3 4 -6 -2 -5 -13z"/>
<path d="M9320 4429 c0 -5 5 -7 10 -4 6 3 10 8 10 11 0 2 -4 4 -10 4 -5 0 -10
-5 -10 -11z"/>
<path d="M362 3170 c0 -19 3 -57 8 -85 6 -40 7 -43 8 -15 0 19 -3 58 -8 85 -6
40 -7 43 -8 15z"/>
<path d="M363 2520 c0 -25 2 -35 4 -22 2 12 2 32 0 45 -2 12 -4 2 -4 -23z"/>
<path d="M388 2453 c17 -2 47 -2 65 0 17 2 3 4 -33 4 -36 0 -50 -2 -32 -4z"/>
<path d="M372 2255 c0 -16 2 -22 5 -12 2 9 2 23 0 30 -3 6 -5 -1 -5 -18z"/>
<path d="M372 2104 c-1 -34 -4 -90 -7 -125 l-4 -64 10 60 c5 33 8 89 6 125
l-3 65 -2 -61z"/>
<path d="M37 1863 c24 -2 62 -2 85 0 24 2 5 4 -42 4 -47 0 -66 -2 -43 -4z"/>
<path d="M178 1863 c6 -2 18 -2 25 0 6 3 1 5 -13 5 -14 0 -19 -2 -12 -5z"/>
<path d="M588 1863 c18 -2 45 -2 60 0 15 2 0 4 -33 4 -33 0 -45 -2 -27 -4z"/>
<path d="M378 1713 c7 -3 16 -2 19 1 4 3 -2 6 -13 5 -11 0 -14 -3 -6 -6z"/>
<path d="M1088 1623 c7 -3 16 -2 19 1 4 3 -2 6 -13 5 -11 0 -14 -3 -6 -6z"/>
<path d="M373 1520 c0 -47 2 -66 4 -42 2 23 2 61 0 85 -2 23 -4 4 -4 -43z"/>
<path d="M363 1310 c0 -30 2 -43 4 -27 2 15 2 39 0 55 -2 15 -4 2 -4 -28z"/>
<path d="M371 1064 c0 -11 3 -14 6 -6 3 7 2 16 -1 19 -3 4 -6 -2 -5 -13z"/>
<path d="M498 1073 c12 -2 32 -2 45 0 12 2 2 4 -23 4 -25 0 -35 -2 -22 -4z"/>
<path d="M640 1076 c0 -2 9 -6 20 -9 11 -3 20 -1 20 4 0 5 -9 9 -20 9 -11 0
-20 -2 -20 -4z"/>
<path d="M8230 1015 c0 -49 -4 -67 -15 -71 -13 -5 -15 -67 -14 -478 1 -309 5
-452 10 -416 5 30 8 213 6 405 -1 193 -1 330 2 305 l5 -45 6 45 c4 25 5 -54 4
-175 -3 -256 2 -345 22 -345 20 0 19 79 -1 86 -11 5 -15 24 -15 80 0 59 3 74
15 74 12 0 15 16 15 80 0 62 3 82 15 86 11 5 15 23 15 75 0 39 4 69 10 69 6 0
10 -31 10 -74 0 -63 2 -73 18 -73 62 0 59 2 67 -83 7 -80 7 -80 36 -80 l29 0
0 160 0 160 -75 0 -75 0 0 40 0 40 40 0 c40 0 40 0 40 39 0 40 0 40 -42 43
-43 3 -43 3 -40 38 5 42 10 49 23 30 8 -11 12 -12 16 -2 2 6 13 12 24 12 10 0
19 5 19 10 0 6 10 10 23 10 12 0 29 5 37 10 10 7 -25 10 -107 10 l-123 0 0
-65z m123 38 c-7 -2 -19 -2 -25 0 -7 3 -2 5 12 5 14 0 19 -2 13 -5z m-113
-123 c0 -5 -5 -10 -11 -10 -5 0 -7 5 -4 10 3 6 8 10 11 10 2 0 4 -4 4 -10z
m-6 -42 c10 -38 7 -58 -9 -58 -11 0 -15 11 -15 40 0 43 14 54 24 18z"/>
<path d="M9693 1073 c9 -2 23 -2 30 0 6 3 -1 5 -18 5 -16 0 -22 -2 -12 -5z"/>
<path d="M9867 978 c1 -75 -1 -91 -6 -58 -14 82 -11 -14 4 -115 l12 -90 2 183
c0 100 -2 182 -6 182 -5 0 -7 -46 -6 -102z"/>
<path d="M8202 1002 c2 -28 6 -48 10 -45 12 7 9 81 -3 88 -7 5 -9 -10 -7 -43z"/>
<path d="M8485 565 c0 -269 1 -378 2 -242 2 137 2 357 0 490 -1 133 -2 22 -2
-248z"/>
<path d="M374 880 c0 -91 2 -128 3 -82 2 45 2 119 0 165 -1 45 -3 8 -3 -83z"/>
<path d="M9575 420 c0 -234 1 -329 2 -213 2 117 2 309 0 425 -1 117 -2 22 -2
-212z"/>
<path d="M673 760 c0 -25 2 -35 4 -22 2 12 2 32 0 45 -2 12 -4 2 -4 -23z"/>
<path d="M363 600 c0 -25 2 -35 4 -22 2 12 2 32 0 45 -2 12 -4 2 -4 -23z"/>
<path d="M673 600 c0 -25 2 -35 4 -22 2 12 2 32 0 45 -2 12 -4 2 -4 -23z"/>
<path d="M8223 560 c0 -47 2 -66 4 -42 2 23 2 61 0 85 -2 23 -4 4 -4 -43z"/>
<path d="M9862 538 c-7 -57 -11 -148 -10 -203 l2 -100 6 125 c5 96 7 74 5
-100 -1 -124 -5 -233 -9 -243 -6 -12 -4 -17 8 -17 14 0 16 33 16 320 0 176 -1
320 -3 320 -2 0 -9 -46 -15 -102z"/>
<path d="M8324 466 c-10 -26 1 -139 14 -144 9 -3 12 17 12 77 0 49 -4 81 -10
81 -6 0 -13 -6 -16 -14z"/>
<path d="M673 280 c0 -25 2 -35 4 -22 2 12 2 32 0 45 -2 12 -4 2 -4 -23z"/>
<path d="M361 254 c0 -11 3 -14 6 -6 3 7 2 16 -1 19 -3 4 -6 -2 -5 -13z"/>
<path d="M1288 143 c6 -2 18 -2 25 0 6 3 1 5 -13 5 -14 0 -19 -2 -12 -5z"/>
<path d="M363 45 c0 -27 2 -38 4 -22 2 15 2 37 0 50 -2 12 -4 0 -4 -28z"/>
<path d="M8220 26 c0 -14 5 -26 10 -26 6 0 10 9 10 19 0 11 -4 23 -10 26 -6 4
-10 -5 -10 -19z"/>
<path d="M8481 14 c0 -11 3 -14 6 -6 3 7 2 16 -1 19 -3 4 -6 -2 -5 -13z"/>
</g>
</svg>
